# Blender3D v249 OBJ File: barrel.blend
# www.blender3d.org
mtllib barrel.mtl
v 0.481420 -0.025068 -0.453438
v 0.620427 -0.025068 -0.245399
v 0.669240 -0.025068 0.000000
v 0.620427 -0.025068 0.245399
v 0.481420 -0.025068 0.453438
v 0.273381 -0.025068 0.592445
v 0.027982 -0.025068 0.641258
v -0.217417 -0.025068 0.592445
v -0.425456 -0.025068 0.453438
v -0.564463 -0.025068 0.245399
v -0.613276 -0.025068 -0.000000
v -0.564463 -0.025068 -0.245399
v -0.425456 -0.025068 -0.453438
v -0.217417 -0.025068 -0.592445
v 0.027982 -0.025068 -0.641258
v 0.273381 -0.025068 -0.592445
v 0.534126 0.285486 -0.506143
v 0.689290 0.285486 -0.273922
v 0.743777 0.285486 0.000001
v 0.689290 0.285486 0.273924
v 0.534124 0.285486 0.506144
v 0.301904 0.285486 0.661309
v 0.027981 0.285486 0.715795
v -0.245942 0.285486 0.661307
v -0.478162 0.285486 0.506142
v -0.633327 0.285486 0.273921
v -0.687813 0.285486 -0.000002
v -0.633325 0.285486 -0.273925
v -0.478160 0.285486 -0.506145
v -0.245939 0.285486 -0.661309
v 0.027984 0.285486 -0.715795
v 0.301907 0.285486 -0.661307
v 0.027982 -0.025068 -0.000000
v 0.333137 0.793518 -0.736702
v 0.027984 0.793518 -0.797401
v -0.277168 0.793518 -0.736704
v -0.535864 0.793518 -0.563850
v -0.708720 0.793518 -0.305154
v -0.769419 0.793518 -0.000002
v -0.708722 0.793518 0.305151
v -0.535867 0.793518 0.563847
v -0.277172 0.793518 0.736702
v 0.027980 0.793518 0.797401
v 0.333133 0.793518 0.736703
v 0.591829 0.793518 0.563849
v 0.764684 0.793518 0.305153
v 0.825383 0.793518 0.000001
v 0.764685 0.793518 -0.305151
v 0.591830 0.793518 -0.563847
v 0.506967 1.310161 -0.478984
v 0.653805 1.310161 -0.259224
v 0.705368 1.310161 0.000001
v 0.653805 1.310161 0.259225
v 0.506965 1.310161 0.478985
v 0.287205 1.310161 0.625823
v 0.027981 1.310161 0.677386
v -0.231244 1.310161 0.625822
v -0.451003 1.310161 0.478983
v -0.597842 1.310161 0.259223
v -0.649404 1.310161 -0.000002
v -0.597840 1.310161 -0.259226
v -0.451001 1.310161 -0.478986
v -0.231241 1.310161 -0.625824
v 0.027984 1.310161 -0.677386
v 0.287208 1.310161 -0.625822
v 0.234760 1.577093 -0.499201
v 0.027984 1.577093 -0.540332
v -0.178793 1.577093 -0.499202
v -0.354089 1.577093 -0.382074
v -0.471219 1.577093 -0.206778
v -0.512350 1.577093 -0.000002
v -0.471220 1.577093 0.206775
v -0.354091 1.577093 0.382071
v -0.178795 1.577093 0.499201
v 0.027981 1.577093 0.540332
v 0.234757 1.577093 0.499202
v 0.410054 1.577093 0.382073
v 0.527183 1.577093 0.206777
v 0.568314 1.577093 0.000001
v 0.527184 1.577093 -0.206776
v 0.410055 1.577093 -0.382072
v 0.439177 1.421949 -0.405318
v 0.563433 1.421949 -0.219356
v 0.607065 1.421949 0.000001
v 0.563432 1.421949 0.219357
v 0.439176 1.421949 0.405318
v 0.253214 1.421949 0.529574
v 0.033858 1.421949 0.573206
v -0.185499 1.421949 0.529573
v -0.371460 1.421949 0.405317
v -0.495715 1.421949 0.219355
v -0.539347 1.421949 -0.000002
v -0.495714 1.421949 -0.219358
v -0.371458 1.421949 -0.405319
v -0.185496 1.421949 -0.529574
v 0.033861 1.421949 -0.573206
v 0.253217 1.421949 -0.529573
v 0.033859 1.421949 -0.000000
v 1.000000 -0.000000 -1.000000
v 1.000000 0.000000 1.000000
v -1.000000 0.000000 1.000000
v -1.000000 -0.000000 -1.000000
vt 0.856078 0.560799
vt 1.000000 0.529461
vt 1.000000 0.592137
vt 0.978089 0.650042
vt 0.937603 0.694361
vt 0.884706 0.718346
vt 0.827451 0.718346
vt 0.774553 0.694360
vt 0.734067 0.650042
vt 0.712157 0.592137
vt 0.712157 0.529461
vt 0.734067 0.471556
vt 0.774553 0.427238
vt 0.827451 0.403253
vt 0.884706 0.403253
vt 0.937604 0.427238
vt 0.978089 0.471556
vt 0.840805 0.859173
vt 0.866395 0.718346
vt 0.913678 0.739785
vt 0.815215 0.718346
vt 0.767932 0.739785
vt 0.731742 0.779401
vt 0.712157 0.831161
vt 0.712157 0.887185
vt 0.731743 0.938945
vt 0.767932 0.978560
vt 0.815216 1.000000
vt 0.866395 1.000000
vt 0.913679 0.978560
vt 0.949868 0.938945
vt 0.969454 0.887185
vt 0.969453 0.831160
vt 0.949868 0.779400
vt 0.001404 0.000000
vt 0.459069 0.001537
vt 0.457665 0.502528
vt 0.000000 0.500991
vt 0.800155 0.172650
vt 0.798884 0.209998
vt 0.763152 0.204099
vt 0.764501 0.164479
vt 0.798276 0.258791
vt 0.762507 0.255861
vt 0.798424 0.311603
vt 0.762664 0.311885
vt 0.799305 0.360391
vt 0.763599 0.363642
vt 0.800786 0.397730
vt 0.765170 0.403253
vt 0.838040 0.010710
vt 0.836941 0.048062
vt 0.801247 0.044544
vt 0.802414 0.004920
vt 0.836505 0.096857
vt 0.800786 0.096308
vt 0.836802 0.149667
vt 0.801100 0.152331
vt 0.837784 0.198453
vt 0.802141 0.204085
vt 0.797947 0.003170
vt 0.799226 0.052184
vt 0.763080 0.000000
vt 0.764437 0.051996
vt 0.799037 0.104992
vt 0.764236 0.108017
vt 0.797407 0.153554
vt 0.762507 0.159534
vt 0.838315 0.208734
vt 0.837094 0.257515
vt 0.802553 0.204085
vt 0.801257 0.255834
vt 0.836650 0.310324
vt 0.800786 0.311857
vt 0.837051 0.359122
vt 0.801211 0.363623
vt 0.838236 0.396479
vt 0.802468 0.403253
vt 0.337958 0.568234
vt 0.277477 0.568031
vt 0.283779 0.502528
vt 0.332024 0.502690
vt 0.393833 0.569394
vt 0.376593 0.503615
vt 0.436594 0.571334
vt 0.410703 0.505163
vt 0.697272 0.336408
vt 0.740033 0.334376
vt 0.714141 0.400505
vt 0.680032 0.402126
vt 0.641397 0.337617
vt 0.635462 0.403091
vt 0.580916 0.337821
vt 0.587218 0.403253
vt 0.525036 0.336986
vt 0.542644 0.402587
vt 0.482264 0.335242
vt 0.508526 0.401196
vt 0.646921 0.739797
vt 0.689682 0.737596
vt 0.663790 0.803646
vt 0.629681 0.805402
vt 0.591047 0.741098
vt 0.585112 0.806439
vt 0.530566 0.741301
vt 0.536868 0.806602
vt 0.474686 0.740375
vt 0.492293 0.805863
vt 0.131973 0.835252
vt 0.187600 0.837115
vt 0.170084 0.906065
vt 0.125713 0.904579
vt 0.071496 0.835398
vt 0.077471 0.904695
vt 0.015374 0.837530
vt 0.032705 0.906397
vt 0.221598 0.568816
vt 0.239206 0.503154
vt 0.271760 0.696203
vt 0.205980 0.697126
vt 0.000000 0.706582
vt 0.066065 0.704072
vt 0.137258 0.703900
vt 0.202740 0.706093
vt 0.459069 0.612233
vt 0.524850 0.613323
vt 0.596046 0.613084
vt 0.661820 0.611552
vt 0.712157 0.608962
vt 0.459069 0.206681
vt 0.509419 0.208734
vt 0.575199 0.209716
vt 0.646396 0.209477
vt 0.712170 0.208054
vt 0.762507 0.205662
vt 0.459069 0.700091
vt 0.408731 0.697807
vt 0.342957 0.696442
vt 0.338955 0.824365
vt 0.275045 0.824150
vt 0.397998 0.825590
vt 0.443184 0.827641
vt 0.701437 0.080247
vt 0.746623 0.078100
vt 0.642394 0.081525
vt 0.578484 0.081740
vt 0.519435 0.080858
vt 0.474238 0.079015
vt 0.651087 0.483704
vt 0.696272 0.481378
vt 0.592044 0.485079
vt 0.528134 0.485293
vt 0.469085 0.484315
vt 0.133063 0.578626
vt 0.191844 0.580595
vt 0.069156 0.578780
vt 0.009852 0.581034
vt 0.215997 0.824979
vt 0.278152 0.902599
vt 0.225253 0.903342
vt 0.072088 0.502666
vt 0.018959 0.504685
vt 0.129340 0.502528
vt 0.181999 0.504291
vt 0.531242 0.406760
vt 0.478342 0.405884
vt 0.588497 0.406568
vt 0.641391 0.405336
vt 0.681871 0.403253
vt 0.528692 0.002471
vt 0.488201 0.000820
vt 0.581592 0.003261
vt 0.638847 0.003068
vt 0.691741 0.001923
vt 0.732222 0.000000
vt 0.388302 0.903890
vt 0.428783 0.905726
vt 0.335408 0.902792
vn -0.000000 -1.000000 0.000000
vn 0.000000 1.000000 0.000000
vn -0.541569 -0.223100 0.810512
vn -0.190726 -0.210397 0.958831
vn 0.191282 -0.196525 0.961659
vn 0.191283 -0.196526 0.961659
vn 0.546124 -0.183604 0.817336
vn 0.546123 -0.183604 0.817336
vn 0.818836 -0.173649 0.547132
vn 0.966805 -0.168239 0.192312
vn 0.966806 -0.168239 -0.192307
vn 0.818839 -0.173649 -0.547128
vn 0.546127 -0.183604 -0.817334
vn 0.191288 -0.196525 -0.961658
vn -0.190722 -0.210396 -0.958832
vn -0.190722 -0.210397 -0.958832
vn -0.541566 -0.223100 -0.810514
vn -0.808634 -0.232747 -0.540314
vn -0.808634 -0.232748 -0.540314
vn -0.952617 -0.237940 -0.189489
vn -0.952617 -0.237941 0.189486
vn -0.952617 -0.237940 0.189486
vn -0.808636 -0.232747 0.540312
vn -0.808636 -0.232748 0.540312
vn 0.742624 0.449767 -0.496204
vn 0.875985 0.449767 -0.174243
vn 0.875984 0.449767 0.174246
vn 0.742623 0.449767 0.496207
vn 0.742623 0.449767 0.496206
vn 0.496204 0.449767 0.742625
vn 0.174243 0.449767 0.875985
vn -0.174246 0.449767 0.875984
vn -0.496207 0.449767 0.742623
vn -0.742625 0.449767 0.496203
vn -0.875985 0.449767 0.174242
vn -0.875984 0.449767 -0.174246
vn -0.742622 0.449767 -0.496207
vn -0.742622 0.449767 -0.496208
vn -0.496203 0.449767 -0.742625
vn -0.174241 0.449767 -0.875985
vn 0.174247 0.449767 -0.875984
vn 0.496207 0.449767 -0.742623
vn 0.541691 0.222142 -0.810694
vn 0.190219 0.222142 -0.956279
vn -0.190213 0.222142 -0.956280
vn -0.541686 0.222142 -0.810696
vn -0.541687 0.222142 -0.810696
vn -0.810693 0.222142 -0.541691
vn -0.956279 0.222142 -0.190218
vn -0.956280 0.222143 0.190213
vn -0.956280 0.222142 0.190213
vn -0.810696 0.222143 0.541687
vn -0.541690 0.222143 0.810694
vn -0.190218 0.222142 0.956279
vn -0.190218 0.222143 0.956279
vn 0.190214 0.222142 0.956280
vn 0.190214 0.222143 0.956280
vn 0.541687 0.222142 0.810696
vn 0.541687 0.222143 0.810696
vn 0.810694 0.222142 0.541690
vn 0.956279 0.222142 0.190217
vn 0.956280 0.222142 -0.190215
vn 0.810695 0.222142 -0.541688
vn 0.821340 -0.155627 -0.548800
vn 0.968835 -0.155627 -0.192712
vn 0.968836 -0.155627 -0.192712
vn 0.968835 -0.155627 0.192715
vn 0.821338 -0.155627 0.548803
vn 0.548800 -0.155627 0.821340
vn 0.192712 -0.155627 0.968836
vn -0.192715 -0.155627 0.968835
vn -0.548803 -0.155627 0.821338
vn -0.821340 -0.155627 0.548799
vn -0.968836 -0.155627 0.192711
vn -0.968836 -0.155627 0.192710
vn -0.968835 -0.155627 -0.192716
vn -0.821337 -0.155627 -0.548804
vn -0.821337 -0.155627 -0.548803
vn -0.548799 -0.155627 -0.821340
vn -0.548799 -0.155627 -0.821341
vn -0.192710 -0.155627 -0.968836
vn 0.192716 -0.155627 -0.968835
vn 0.548803 -0.155627 -0.821338
vn 0.540791 -0.229136 -0.809347
vn 0.540789 -0.229138 -0.809347
vn 0.189901 -0.229138 -0.954690
vn 0.189903 -0.229136 -0.954690
vn -0.189899 -0.229138 -0.954691
vn -0.189897 -0.229136 -0.954692
vn -0.540789 -0.229138 -0.809348
vn -0.540787 -0.229136 -0.809349
vn -0.809347 -0.229138 -0.540789
vn -0.809346 -0.229135 -0.540791
vn -0.954691 -0.229138 -0.189900
vn -0.954691 -0.229136 -0.189902
vn -0.954691 -0.229138 0.189900
vn -0.954692 -0.229136 0.189897
vn -0.809347 -0.229138 0.540789
vn -0.809349 -0.229136 0.540787
vn -0.540789 -0.229137 0.809348
vn -0.540791 -0.229136 0.809347
vn -0.189900 -0.229137 0.954691
vn -0.189902 -0.229136 0.954691
vn 0.189900 -0.229137 0.954691
vn 0.189898 -0.229136 0.954691
vn 0.540789 -0.229137 0.809348
vn 0.540788 -0.229136 0.809349
vn 0.809348 -0.229137 0.540789
vn 0.809347 -0.229136 0.540790
vn 0.954691 -0.229137 0.189900
vn 0.954691 -0.229136 0.189901
vn 0.954691 -0.229137 -0.189900
vn 0.954691 -0.229136 -0.189899
vn 0.809348 -0.229137 -0.540789
vn 0.809349 -0.229136 -0.540788
usemtl None_barrel.png
s off
f 33/1/1 1/2/1 2/3/1
f 33/1/1 2/3/1 3/4/1
f 33/1/1 3/4/1 4/5/1
f 33/1/1 4/5/1 5/6/1
f 33/1/1 5/6/1 6/7/1
f 33/1/1 6/7/1 7/8/1
f 33/1/1 7/8/1 8/9/1
f 33/1/1 8/9/1 9/10/1
f 33/1/1 9/10/1 10/11/1
f 33/1/1 10/11/1 11/12/1
f 33/1/1 11/12/1 12/13/1
f 33/1/1 12/13/1 13/14/1
f 33/1/1 13/14/1 14/15/1
f 33/1/1 14/15/1 15/16/1
f 33/1/1 15/16/1 16/17/1
f 16/17/1 1/2/1 33/1/1
f 98/18/2 83/19/2 82/20/2
f 98/18/2 84/21/2 83/19/2
f 98/18/2 85/22/2 84/21/2
f 98/18/2 86/23/2 85/22/2
f 98/18/2 87/24/2 86/23/2
f 98/18/2 88/25/2 87/24/2
f 98/18/2 89/26/2 88/25/2
f 98/18/2 90/27/2 89/26/2
f 98/18/2 91/28/2 90/27/2
f 98/18/2 92/29/2 91/28/2
f 98/18/2 93/30/2 92/29/2
f 98/18/2 94/31/2 93/30/2
f 98/18/2 95/32/2 94/31/2
f 98/18/2 96/33/2 95/32/2
f 98/18/2 97/34/2 96/33/2
f 98/18/2 82/20/2 97/34/2
f 99/35/2 102/36/2 101/37/2
f 99/35/2 101/37/2 100/38/2
f 81/39/3 66/40/3 97/41/3
f 81/39/3 97/41/3 82/42/3
f 66/40/4 67/43/4 96/44/4
f 66/40/4 96/44/4 97/41/4
f 67/43/5 68/45/5 95/46/5
f 67/43/6 95/46/6 96/44/6
f 68/45/7 69/47/7 94/48/7
f 68/45/8 94/48/8 95/46/8
f 69/47/9 70/49/9 93/50/9
f 69/47/9 93/50/9 94/48/9
f 70/51/10 71/52/10 92/53/10
f 70/51/10 92/53/10 93/54/10
f 71/52/11 72/55/11 92/53/11
f 72/55/11 91/56/11 92/53/11
f 72/55/12 73/57/12 91/56/12
f 73/57/12 90/58/12 91/56/12
f 73/57/13 74/59/13 90/58/13
f 74/59/13 89/60/13 90/58/13
f 74/61/14 75/62/14 89/63/14
f 75/62/14 88/64/14 89/63/14
f 75/62/15 76/65/15 88/64/15
f 76/65/16 87/66/16 88/64/16
f 76/65/17 77/67/17 87/66/17
f 77/67/17 86/68/17 87/66/17
f 77/69/18 78/70/18 86/71/18
f 78/70/19 85/72/19 86/71/19
f 78/70/20 79/73/20 85/72/20
f 79/73/20 84/74/20 85/72/20
f 79/73/21 80/75/21 83/76/21
f 79/73/22 83/76/22 84/74/22
f 80/75/23 81/77/23 82/78/23
f 80/75/24 82/78/24 83/76/24
f 51/79/25 50/80/25 81/81/25
f 51/79/25 81/81/25 80/82/25
f 52/83/26 51/79/26 79/84/26
f 51/79/26 80/82/26 79/84/26
f 53/85/27 52/83/27 79/84/27
f 53/85/27 79/84/27 78/86/27
f 54/87/28 53/88/28 78/89/28
f 54/87/29 78/89/29 77/90/29
f 55/91/30 54/87/30 77/90/30
f 55/91/30 77/90/30 76/92/30
f 56/93/31 55/91/31 75/94/31
f 55/91/31 76/92/31 75/94/31
f 57/95/32 56/93/32 75/94/32
f 57/95/32 75/94/32 74/96/32
f 58/97/33 57/95/33 74/96/33
f 58/97/33 74/96/33 73/98/33
f 59/99/34 58/100/34 73/101/34
f 59/99/34 73/101/34 72/102/34
f 60/103/35 59/99/35 72/102/35
f 60/103/35 72/102/35 71/104/35
f 61/105/36 60/103/36 71/104/36
f 61/105/36 71/104/36 70/106/36
f 62/107/37 61/105/37 70/106/37
f 62/107/38 70/106/38 69/108/38
f 63/109/39 62/110/39 69/111/39
f 63/109/39 69/111/39 68/112/39
f 64/113/40 63/109/40 68/112/40
f 64/113/40 68/112/40 67/114/40
f 65/115/41 64/113/41 67/114/41
f 65/115/41 67/114/41 66/116/41
f 50/80/42 65/117/42 66/118/42
f 50/80/42 66/118/42 81/81/42
f 49/119/43 34/120/43 65/117/43
f 49/119/43 65/117/43 50/80/43
f 34/121/44 35/122/44 64/113/44
f 34/121/44 64/113/44 65/115/44
f 35/122/45 36/123/45 63/109/45
f 35/122/45 63/109/45 64/113/45
f 36/123/46 37/124/46 62/110/46
f 36/123/47 62/110/47 63/109/47
f 37/125/48 38/126/48 61/105/48
f 37/125/48 61/105/48 62/107/48
f 38/126/49 39/127/49 60/103/49
f 38/126/49 60/103/49 61/105/49
f 39/127/50 40/128/50 59/99/50
f 39/127/51 59/99/51 60/103/51
f 40/128/52 41/129/52 58/100/52
f 40/128/52 58/100/52 59/99/52
f 41/130/53 42/131/53 57/95/53
f 41/130/53 57/95/53 58/97/53
f 42/131/54 43/132/54 56/93/54
f 42/131/55 56/93/55 57/95/55
f 43/132/56 44/133/56 56/93/56
f 44/133/57 55/91/57 56/93/57
f 44/133/58 45/134/58 54/87/58
f 44/133/59 54/87/59 55/91/59
f 45/134/60 46/135/60 53/88/60
f 45/134/60 53/88/60 54/87/60
f 46/136/61 47/137/61 52/83/61
f 46/136/61 52/83/61 53/85/61
f 47/137/62 48/138/62 51/79/62
f 47/137/62 51/79/62 52/83/62
f 48/138/63 49/119/63 50/80/63
f 48/138/63 50/80/63 51/79/63
f 18/139/64 17/140/64 49/119/64
f 18/139/64 49/119/64 48/138/64
f 19/141/65 18/139/65 48/138/65
f 19/141/66 48/138/66 47/137/66
f 20/142/67 19/141/67 47/137/67
f 20/142/67 47/137/67 46/136/67
f 21/143/68 20/144/68 46/135/68
f 21/143/68 46/135/68 45/134/68
f 22/145/69 21/143/69 45/134/69
f 22/145/69 45/134/69 44/133/69
f 23/146/70 22/145/70 44/133/70
f 23/146/70 44/133/70 43/132/70
f 24/147/71 23/146/71 43/132/71
f 24/147/71 43/132/71 42/131/71
f 25/148/72 24/147/72 42/131/72
f 25/148/72 42/131/72 41/130/72
f 26/149/73 25/150/73 41/129/73
f 26/149/73 41/129/73 40/128/73
f 27/151/74 26/149/74 40/128/74
f 27/151/75 40/128/75 39/127/75
f 28/152/76 27/151/76 39/127/76
f 28/152/76 39/127/76 38/126/76
f 29/153/77 28/152/77 38/126/77
f 29/153/78 38/126/78 37/125/78
f 30/154/79 29/155/79 37/124/79
f 30/154/80 37/124/80 36/123/80
f 31/156/81 30/154/81 36/123/81
f 31/156/81 36/123/81 35/122/81
f 32/157/82 31/156/82 35/122/82
f 32/157/82 35/122/82 34/121/82
f 17/140/83 32/158/83 34/120/83
f 17/140/83 34/120/83 49/119/83
f 17/140/84 1/159/84 32/158/84
f 1/159/85 16/160/85 32/158/85
f 15/161/86 31/156/86 16/162/86
f 31/156/87 32/157/87 16/162/87
f 14/163/88 30/154/88 15/161/88
f 30/154/89 31/156/89 15/161/89
f 13/164/90 29/155/90 14/163/90
f 29/155/91 30/154/91 14/163/91
f 12/165/92 28/152/92 13/166/92
f 28/152/93 29/153/93 13/166/93
f 11/167/94 27/151/94 12/165/94
f 27/151/95 28/152/95 12/165/95
f 10/168/96 26/149/96 11/167/96
f 26/149/97 27/151/97 11/167/97
f 9/169/98 25/150/98 10/168/98
f 25/150/99 26/149/99 10/168/99
f 8/170/100 24/147/100 9/171/100
f 24/147/101 25/148/101 9/171/101
f 7/172/102 23/146/102 8/170/102
f 23/146/103 24/147/103 8/170/103
f 6/173/104 22/145/104 7/172/104
f 22/145/105 23/146/105 7/172/105
f 5/174/106 21/143/106 6/173/106
f 21/143/107 22/145/107 6/173/107
f 4/175/108 20/144/108 5/174/108
f 20/144/109 21/143/109 5/174/109
f 3/176/110 19/141/110 4/177/110
f 19/141/111 20/142/111 4/177/111
f 2/178/112 18/139/112 3/176/112
f 18/139/113 19/141/113 3/176/113
f 1/159/114 17/140/114 2/178/114
f 17/140/115 18/139/115 2/178/115
