# Blender3D v249 OBJ File: snowman.blend
# www.blender3d.org
mtllib snowman.mtl
v 1.000000 0.000000 -1.000000
v 1.000000 0.000000 1.000000
v -1.000000 0.000000 1.000000
v -1.000000 0.000000 -1.000000
v 0.064409 1.272405 -0.259802
v -0.070554 1.239215 -0.254841
v 0.028133 1.148537 -0.261132
v -0.002587 1.223198 -0.468701
v 0.007329 1.220052 -0.258592
v 0.020114 0.960709 -0.009206
v -0.218044 1.102171 -0.174087
v 0.103330 1.102171 -0.286658
v 0.309705 1.102171 -0.015798
v 0.115870 1.102171 0.264172
v -0.210294 1.102171 0.166342
v -0.075642 1.331063 -0.282583
v 0.250521 1.331063 -0.184754
v 0.258271 1.331063 0.155675
v -0.063103 1.331063 0.268246
v -0.269478 1.331063 -0.002613
v 0.020114 1.472526 -0.009206
v -0.119872 0.998928 -0.106121
v 0.069027 0.998928 -0.172289
v -0.070959 1.082077 -0.269205
v -0.115317 0.998928 0.093979
v -0.255304 1.082077 -0.002936
v 0.190331 0.998928 -0.013081
v 0.239246 1.082077 -0.176164
v 0.076398 0.998928 0.151482
v 0.246616 1.082077 0.147607
v -0.059033 1.082077 0.254668
v -0.285536 1.216617 0.097854
v -0.290091 1.216617 -0.102246
v -0.176159 1.216617 -0.266812
v 0.012743 1.216617 -0.332979
v 0.204460 1.216617 -0.275477
v 0.325763 1.216617 -0.116266
v 0.330319 1.216617 0.083834
v 0.216386 1.216617 0.248400
v 0.027484 1.216617 0.314568
v -0.164233 1.216617 0.257065
v -0.206389 1.351157 -0.166019
v 0.099260 1.351158 -0.273080
v 0.295531 1.351157 -0.015476
v 0.111187 1.351158 0.250793
v -0.199019 1.351157 0.157752
v -0.150104 1.434306 -0.005331
v -0.036171 1.434307 -0.169894
v 0.155544 1.434307 -0.112391
v 0.160099 1.434307 0.087709
v -0.028800 1.434307 0.153877
v 0.007533 0.423631 -0.008919
v -0.304766 0.609133 -0.225130
v 0.116656 0.609133 -0.372746
v 0.387278 0.609133 -0.017564
v 0.133099 0.609133 0.349564
v -0.294604 0.609133 0.221279
v -0.118033 0.909282 -0.367403
v 0.309669 0.909282 -0.239118
v 0.319832 0.909282 0.207291
v -0.101590 0.909282 0.354907
v -0.372212 0.909282 -0.000275
v 0.007533 1.094784 -0.008919
v -0.176033 0.473748 -0.136005
v 0.071674 0.473748 -0.222772
v -0.111892 0.582782 -0.349860
v -0.170059 0.473748 0.126388
v -0.353626 0.582783 -0.000698
v 0.230741 0.473749 -0.014001
v 0.294884 0.582783 -0.227854
v 0.081339 0.473748 0.201793
v 0.304549 0.582783 0.196712
v -0.096254 0.582783 0.337102
v -0.393270 0.759207 0.131470
v -0.399243 0.759207 -0.130924
v -0.249842 0.759207 -0.346722
v -0.002132 0.759207 -0.433488
v 0.249269 0.759207 -0.358084
v 0.408336 0.759207 -0.149309
v 0.414309 0.759207 0.113085
v 0.264908 0.759207 0.328883
v 0.017198 0.759207 0.415649
v -0.234203 0.759207 0.340245
v -0.289483 0.935632 -0.214551
v 0.111319 0.935632 -0.354941
v 0.368691 0.935632 -0.017141
v 0.126958 0.935632 0.332021
v -0.279818 0.935632 0.210015
v -0.215676 1.044666 -0.003838
v -0.066273 1.044667 -0.219632
v 0.185125 1.044667 -0.144227
v 0.191098 1.044667 0.118166
v -0.056608 1.044667 0.204933
v 0.007533 -0.156409 -0.008919
v -0.409637 0.091384 -0.297734
v 0.153299 0.091384 -0.494920
v 0.514797 0.091384 -0.020467
v 0.175264 0.091384 0.469944
v -0.396062 0.091384 0.298580
v -0.160199 0.492324 -0.487783
v 0.411128 0.492324 -0.316419
v 0.424703 0.492324 0.279895
v -0.138233 0.492324 0.477081
v -0.499731 0.492324 0.002628
v 0.007533 0.740117 -0.008920
v -0.237674 -0.089463 -0.178681
v 0.093212 -0.089463 -0.294584
v -0.151996 0.056185 -0.464348
v -0.229695 -0.089463 0.171824
v -0.474903 0.056186 0.002063
v 0.305695 -0.089462 -0.015707
v 0.391377 0.056186 -0.301373
v 0.106123 -0.089463 0.272550
v 0.404288 0.056186 0.265763
v -0.131105 0.056185 0.453297
v -0.527860 0.291854 0.178613
v -0.535839 0.291854 -0.171894
v -0.336269 0.291854 -0.460156
v -0.005378 0.291854 -0.576059
v 0.330444 0.291854 -0.475334
v 0.542926 0.291854 -0.196452
v 0.550905 0.291854 0.154055
v 0.351335 0.291854 0.442317
v 0.020444 0.291854 0.558220
v -0.315378 0.291854 0.457495
v -0.389222 0.527522 -0.283602
v 0.146171 0.527523 -0.471136
v 0.489969 0.527522 -0.019902
v 0.167061 0.527523 0.446509
v -0.376311 0.527522 0.283534
v -0.290629 0.673170 -0.002132
v -0.091058 0.673171 -0.290389
v 0.244761 0.673171 -0.189663
v 0.252740 0.673171 0.160842
v -0.078147 0.673171 0.276745
vt 0.206820 0.508742
vt 0.241960 0.508712
vt 0.226562 0.562425
vt 0.245838 0.578726
vt 0.245885 0.543822
vt 0.278406 0.565531
vt 0.278429 0.508712
vt 0.313676 0.551847
vt 0.278406 0.567179
vt 0.260610 0.532108
vt 0.278406 0.543822
vt 0.243606 0.543790
vt 0.259817 0.508712
vt 0.915334 0.752121
vt 0.881809 0.726580
vt 0.919960 0.708853
vt 0.881649 0.777460
vt 0.919688 0.795415
vt 0.587504 0.913756
vt 0.607988 0.950249
vt 0.576594 0.961547
vt 0.906255 0.685490
vt 0.616611 0.991010
vt 0.591633 1.000000
vt 0.921172 0.847040
vt 0.881649 0.862549
vt 0.904238 0.818842
vt 0.905837 0.818696
vt 0.620195 0.874881
vt 0.634264 0.913683
vt 0.663606 0.884111
vt 0.684945 0.922554
vt 0.652253 0.961429
vt 0.694211 0.965342
vt 0.667292 0.999882
vt 0.954297 0.820877
vt 0.954890 0.685636
vt 0.917748 0.891598
vt 0.881686 0.912869
vt 0.921235 0.932649
vt 0.960342 0.777696
vt 0.960501 0.726816
vt 0.996530 0.752365
vt 0.916098 0.399427
vt 0.920412 0.442831
vt 0.881966 0.425219
vt 0.881916 0.374341
vt 0.920326 0.356273
vt 0.954472 0.818842
vt 0.797068 0.926718
vt 0.801630 0.970097
vt 0.763604 0.952435
vt 0.954946 0.466325
vt 0.961202 0.424832
vt 1.000000 0.440852
vt 0.801586 0.883537
vt 0.763578 0.901556
vt 0.962648 0.865843
vt 0.999233 0.845442
vt 0.878312 0.926776
vt 0.881649 0.968095
vt 0.842167 0.952134
vt 0.836576 0.993559
vt 0.904334 0.950581
vt 0.999897 0.711211
vt 0.999638 0.793537
vt 0.905843 0.333365
vt 0.961151 0.373954
vt 0.997060 0.399493
vt 0.842141 0.901255
vt 0.962684 0.916163
vt 0.997622 0.888832
vt 0.112075 0.782142
vt 0.088403 0.762445
vt 0.128919 0.742084
vt 0.162669 0.770146
vt 0.145821 0.810187
vt 0.174478 0.742036
vt 0.108114 0.832874
vt 0.081664 0.848756
vt 0.074364 0.804812
vt 0.999917 0.358530
vt 0.118548 0.874904
vt 0.156259 0.852233
vt 0.954814 0.333126
vt 0.881607 0.885772
vt 0.200410 0.855495
vt 0.189976 0.813466
vt 0.836509 0.860356
vt 0.954394 0.952616
vt 0.206820 0.773408
vt 0.999293 0.926861
vt 0.770762 0.772864
vt 0.726799 0.739372
vt 0.776827 0.716127
vt 0.726590 0.806091
vt 0.776470 0.829636
vt 0.225764 0.793008
vt 0.252626 0.840861
vt 0.211458 0.855677
vt 0.758856 0.685490
vt 0.263933 0.894313
vt 0.231179 0.906101
vt 0.779475 0.327882
vt 0.727648 0.348219
vt 0.757268 0.290905
vt 0.758308 0.860165
vt 0.268633 0.742030
vt 0.287082 0.792912
vt 0.325558 0.754134
vt 0.353540 0.804545
vt 0.310671 0.855522
vt 0.365691 0.860653
vt 0.330392 0.905946
vt 0.822912 0.293574
vt 0.822631 0.685681
vt 0.774985 0.386311
vt 0.727696 0.414204
vt 0.779557 0.440142
vt 0.829780 0.806401
vt 0.829989 0.739681
vt 0.877234 0.773184
vt 0.797361 0.145015
vt 0.803018 0.201930
vt 0.752604 0.178836
vt 0.752537 0.112119
vt 0.802905 0.088426
vt 0.822083 0.860356
vt 0.409606 0.829051
vt 0.415588 0.885935
vt 0.365725 0.862775
vt 0.848303 0.232738
vt 0.856507 0.178328
vt 0.907383 0.199335
vt 0.415530 0.772428
vt 0.365691 0.796056
vt 0.833862 0.352538
vt 0.881838 0.325786
vt 0.516143 0.829128
vt 0.520519 0.883310
vt 0.468746 0.862379
vt 0.461414 0.916700
vt 0.757395 0.463656
vt 0.881649 0.719218
vt 0.881311 0.827174
vt 0.783914 0.058386
vt 0.856440 0.111611
vt 0.903528 0.145101
vt 0.468711 0.795661
vt 0.833910 0.418523
vt 0.879724 0.382684
vt 0.569970 0.753241
vt 0.538929 0.727412
vt 0.592058 0.700712
vt 0.636315 0.737511
vt 0.614222 0.790017
vt 0.651801 0.700650
vt 0.564776 0.819767
vt 0.530092 0.840592
vt 0.520519 0.782968
vt 0.907275 0.091385
vt 0.578458 0.874881
vt 0.627909 0.845153
vt 0.848130 0.058072
vt 0.520464 0.775358
vt 0.685805 0.849430
vt 0.672122 0.794316
vt 0.461325 0.742030
vt 0.823039 0.466325
vt 0.694211 0.741788
vt 0.881916 0.432552
vt 0.579524 0.349452
vt 0.520799 0.304713
vt 0.587626 0.273662
vt 0.520519 0.393837
vt 0.587150 0.425288
vt 0.745700 0.534421
vt 0.781581 0.598344
vt 0.726590 0.618134
vt 0.563620 0.232738
vt 0.796686 0.669744
vt 0.752932 0.685490
vt 0.589749 0.515718
vt 0.520519 0.542885
vt 0.560086 0.466325
vt 0.562888 0.466069
vt 0.802964 0.466325
vt 0.827608 0.534292
vt 0.879005 0.482493
vt 0.916383 0.549832
vt 0.859118 0.617927
vt 0.932614 0.624781
vt 0.885461 0.685284
vt 0.647773 0.469889
vt 0.648811 0.232993
vt 0.583752 0.593767
vt 0.520584 0.631028
vt 0.589860 0.665675
vt 0.658361 0.394251
vt 0.658641 0.305127
vt 0.721750 0.349879
vt 0.373552 0.624849
vt 0.381108 0.700877
vt 0.313765 0.670028
vt 0.313676 0.580908
vt 0.380958 0.549258
vt 0.648079 0.466325
vt 0.058663 0.624955
vt 0.066653 0.700940
vt 0.000046 0.670002
vt 0.441601 0.742030
vt 0.452558 0.669349
vt 0.520519 0.697410
vt 0.066576 0.549317
vt 0.000000 0.580880
vt 0.662400 0.548653
vt 0.726486 0.512918
vt 0.200974 0.625057
vt 0.206820 0.697433
vt 0.137661 0.669474
vt 0.127867 0.742036
vt 0.560256 0.697086
vt 0.727648 0.277792
vt 0.727195 0.421999
vt 0.355589 0.509130
vt 0.452470 0.580229
vt 0.515370 0.624965
vt 0.137615 0.580351
vt 0.662465 0.636796
vt 0.723662 0.588923
vt 0.586576 0.070251
vt 0.545112 0.035748
vt 0.616082 0.000083
vt 0.675199 0.049239
vt 0.645688 0.119376
vt 0.695885 0.000000
vt 0.579637 0.159117
vt 0.533307 0.186935
vt 0.520519 0.109961
vt 0.520374 0.553211
vt 0.597914 0.232738
vt 0.663971 0.193027
vt 0.441369 0.508712
vt 0.206746 0.553231
vt 0.741309 0.198741
vt 0.723031 0.125120
vt 0.127749 0.508712
vt 0.647942 0.700650
vt 0.752537 0.054952
vt 0.726590 0.655537
vt 0.000307 0.508712
vt 0.000000 0.000301
vt 0.520519 0.508411
vt 0.520212 0.000000
vn -0.241302 0.959019 -0.148515
vn -0.673391 -0.721775 -0.159955
vn 0.933368 -0.270819 -0.235546
vn 0.042411 -0.023148 0.998832
vn 0.042411 -0.023147 0.998832
vn 0.042410 -0.023147 0.998832
vn -0.431021 -0.745000 -0.509113
vn -0.170843 -0.856114 -0.487731
vn 0.019124 -0.744999 -0.666791
vn -0.088387 -0.963596 -0.252331
vn -0.628245 -0.745000 -0.224238
vn -0.516656 -0.856112 0.011762
vn -0.617390 -0.745000 0.252595
vn -0.267293 -0.963596 0.006085
vn 0.351005 -0.744999 -0.567249
vn 0.411068 -0.856114 -0.313198
vn 0.640057 -0.745006 -0.187867
vn 0.212671 -0.963595 -0.162034
vn 0.647943 -0.745006 0.158545
vn 0.424894 -0.856114 0.294167
vn 0.376456 -0.744999 0.550689
vn 0.219824 -0.963595 0.152189
vn 0.049447 -0.744999 0.665230
vn -0.148471 -0.856114 0.495001
vn -0.407406 -0.745000 0.528200
vn -0.076813 -0.963596 0.256092
vn -0.882338 -0.405033 -0.239640
vn -0.971759 -0.234936 0.022122
vn -0.987145 0.158240 0.022472
vn -0.870519 -0.405033 0.279544
vn -0.044747 -0.405036 -0.913205
vn -0.321330 -0.234935 -0.917362
vn -0.326416 0.158265 -0.931882
vn -0.534873 -0.405035 -0.741524
vn 0.854682 -0.405025 -0.324766
vn 0.773169 -0.234932 -0.589082
vn 0.785407 0.158261 -0.598406
vn 0.539946 -0.405037 -0.737836
vn 0.572964 -0.405037 0.712501
vn 0.799175 -0.234932 0.553287
vn 0.811825 0.158261 0.562045
vn 0.868576 -0.405025 0.285536
vn -0.500574 -0.405035 0.765096
vn -0.279251 -0.234935 0.931034
vn -0.283671 0.158265 0.945771
vn -0.003144 -0.405036 0.914295
vn -0.868576 0.405025 -0.285536
vn -0.799175 0.234932 -0.553287
vn -0.572964 0.405037 -0.712501
vn -0.811825 -0.158261 -0.562045
vn 0.003144 0.405035 -0.914296
vn 0.279251 0.234935 -0.931034
vn 0.500574 0.405035 -0.765096
vn 0.283671 -0.158265 -0.945771
vn 0.870519 0.405033 -0.279544
vn 0.971759 0.234936 -0.022122
vn 0.882338 0.405033 0.239640
vn 0.987145 -0.158240 -0.022472
vn 0.534873 0.405035 0.741524
vn 0.321330 0.234935 0.917362
vn 0.044747 0.405036 0.913205
vn 0.326416 -0.158265 0.931882
vn -0.539947 0.405037 0.737836
vn -0.773169 0.234932 0.589082
vn -0.854682 0.405025 0.324767
vn -0.785407 -0.158261 0.598406
vn -0.376456 0.744999 -0.550688
vn -0.424895 0.856113 -0.294168
vn -0.219824 0.963595 -0.152188
vn -0.647943 0.745005 -0.158546
vn 0.407406 0.745000 -0.528200
vn 0.148472 0.856114 -0.495000
vn 0.076814 0.963596 -0.256092
vn -0.049447 0.744999 -0.665230
vn 0.628245 0.745001 0.224238
vn 0.516656 0.856112 -0.011762
vn 0.267294 0.963596 -0.006085
vn 0.617390 0.745001 -0.252595
vn -0.019124 0.744999 0.666791
vn 0.170844 0.856114 0.487731
vn 0.088388 0.963596 0.252331
vn 0.431020 0.745000 0.509113
vn -0.640057 0.745005 0.187868
vn -0.411068 0.856113 0.313198
vn -0.212670 0.963595 0.162034
vn -0.351006 0.744999 0.567249
vn 0.351006 -0.744999 -0.567249
vn 0.411068 -0.856113 -0.313198
vn 0.640056 -0.745006 -0.187867
vn 0.647943 -0.745006 0.158546
vn 0.424894 -0.856113 0.294167
vn 0.376456 -0.744999 0.550688
vn 0.049447 -0.745000 0.665230
vn -0.987145 0.158240 0.022473
vn -0.044748 -0.405036 -0.913205
vn 0.854682 -0.405025 -0.324767
vn 0.773169 -0.234932 -0.589081
vn 0.539947 -0.405037 -0.737836
vn -0.003144 -0.405036 0.914296
vn 0.003145 0.405035 -0.914296
vn 0.987145 -0.158240 -0.022473
vn 0.044748 0.405036 0.913205
vn -0.773169 0.234932 0.589081
vn -0.424894 0.856114 -0.294167
vn -0.647943 0.745006 -0.158546
vn 0.407406 0.745000 -0.528201
vn 0.148471 0.856113 -0.495001
vn 0.076812 0.963596 -0.256091
vn 0.628245 0.745000 0.224238
vn 0.516657 0.856112 -0.011762
vn 0.267292 0.963596 -0.006085
vn 0.617390 0.745000 -0.252595
vn 0.170843 0.856113 0.487732
vn 0.088387 0.963596 0.252331
vn 0.431021 0.745000 0.509113
vn -0.640056 0.745006 0.187867
vn -0.411068 0.856114 0.313198
vn -0.212671 0.963595 0.162034
vn 0.019124 -0.745000 -0.666791
vn 0.003144 0.405036 -0.914295
vn 0.326416 -0.158265 0.931883
vn -0.854682 0.405025 0.324766
vn -0.219824 0.963595 -0.152189
vn 0.148471 0.856114 -0.495001
vn 0.076813 0.963596 -0.256092
vn 0.267293 0.963596 -0.006085
vn -0.019124 0.745000 0.666791
vn 0.170843 0.856114 0.487731
vn -0.640057 0.745006 0.187867
vn -0.351005 0.744999 0.567249
vn -0.000000 1.000000 0.000000
usemtl None_snowman.png.001
s off
f 6/1/1 5/2/1 8/3/1
f 8/4/2 7/5/2 6/6/2
f 8/7/3 5/8/3 7/9/3
f 9/10/4 5/11/4 6/12/4
f 9/10/5 6/12/5 7/13/5
f 7/13/6 5/11/6 9/10/6
f 24/14/7 22/15/7 11/16/7
f 22/15/8 24/14/8 23/17/8
f 12/18/9 23/17/9 24/14/9
f 23/19/10 10/20/10 22/21/10
f 26/22/11 11/16/11 22/15/11
f 22/21/12 25/23/12 26/24/12
f 15/25/13 26/26/13 25/27/13
f 22/21/14 10/20/14 25/23/14
f 28/28/15 23/17/15 12/18/15
f 23/19/16 28/29/16 27/30/16
f 13/31/17 27/30/17 28/29/17
f 27/30/18 10/20/18 23/19/18
f 30/32/19 27/30/19 13/31/19
f 27/30/20 30/32/20 29/33/20
f 14/34/21 29/33/21 30/32/21
f 29/33/22 10/20/22 27/30/22
f 31/35/23 29/33/23 14/34/23
f 29/33/24 31/35/24 25/23/24
f 15/25/25 25/27/25 31/36/25
f 25/23/26 10/20/26 29/33/26
f 33/37/27 11/16/27 26/22/27
f 26/26/28 32/38/28 33/39/28
f 20/40/29 33/39/29 32/38/29
f 32/38/30 26/26/30 15/25/30
f 35/41/31 12/18/31 24/14/31
f 24/14/32 34/42/32 35/41/32
f 16/43/33 35/41/33 34/42/33
f 34/42/34 24/14/34 11/16/34
f 37/44/35 13/45/35 28/46/35
f 28/46/36 36/47/36 37/44/36
f 17/48/37 37/44/37 36/47/37
f 36/49/38 28/28/38 12/18/38
f 39/50/39 14/51/39 30/52/39
f 30/53/40 38/54/40 39/55/40
f 18/56/41 39/50/41 38/57/41
f 38/54/42 30/53/42 13/45/42
f 41/58/43 15/25/43 31/36/43
f 31/36/44 40/59/44 41/58/44
f 19/60/45 41/61/45 40/62/45
f 40/62/46 31/63/46 14/51/46
f 42/64/47 33/39/47 20/40/47
f 33/37/48 42/65/48 34/42/48
f 16/43/49 34/42/49 42/65/49
f 34/42/50 11/16/50 33/37/50
f 43/66/51 35/41/51 16/43/51
f 35/41/52 43/66/52 36/49/52
f 17/48/53 36/47/53 43/67/53
f 36/49/54 12/18/54 35/41/54
f 44/68/55 37/44/55 17/48/55
f 37/44/56 44/68/56 38/54/56
f 18/69/57 38/54/57 44/68/57
f 38/54/58 13/45/58 37/44/58
f 45/70/59 39/50/59 18/56/59
f 39/50/60 45/70/60 40/62/60
f 19/60/61 40/62/61 45/70/61
f 40/62/62 14/51/62 39/50/62
f 46/71/63 41/58/63 19/72/63
f 41/58/64 46/71/64 32/38/64
f 20/40/65 32/38/65 46/71/65
f 32/38/66 15/25/66 41/58/66
f 48/73/67 16/74/67 42/75/67
f 42/75/68 47/76/68 48/73/68
f 21/77/69 48/73/69 47/76/69
f 47/76/70 42/75/70 20/78/70
f 49/79/71 17/80/71 43/81/71
f 43/81/72 48/73/72 49/79/72
f 21/77/73 49/79/73 48/73/73
f 48/73/74 43/81/74 16/74/74
f 50/82/75 18/69/75 44/68/75
f 44/83/76 49/79/76 50/84/76
f 21/77/77 50/84/77 49/79/77
f 49/85/78 44/68/78 17/48/78
f 51/86/79 19/60/79 45/70/79
f 45/87/80 50/84/80 51/88/80
f 21/77/81 51/88/81 50/84/81
f 50/89/82 45/70/82 18/56/82
f 47/90/83 20/40/83 46/71/83
f 46/91/84 51/88/84 47/76/84
f 21/77/85 47/76/85 51/88/85
f 51/92/86 46/71/86 19/72/86
f 66/93/7 64/94/7 53/95/7
f 64/94/8 66/93/8 65/96/8
f 54/97/9 65/96/9 66/93/9
f 65/98/10 52/99/10 64/100/10
f 68/101/11 53/95/11 64/94/11
f 64/100/12 67/102/12 68/103/12
f 57/104/13 68/105/13 67/106/13
f 64/100/14 52/99/14 67/102/14
f 70/107/87 65/96/87 54/97/87
f 65/98/88 70/108/88 69/109/88
f 55/110/89 69/109/89 70/108/89
f 69/109/18 52/99/18 65/98/18
f 72/111/90 69/109/90 55/110/90
f 69/109/91 72/111/91 71/112/91
f 56/113/92 71/112/92 72/111/92
f 71/112/22 52/99/22 69/109/22
f 73/114/93 71/112/93 56/113/93
f 71/112/24 73/114/24 67/102/24
f 57/104/25 67/106/25 73/115/25
f 67/102/26 52/99/26 71/112/26
f 75/116/27 53/95/27 68/101/27
f 68/105/28 74/117/28 75/118/28
f 62/119/94 75/118/94 74/117/94
f 74/117/30 68/105/30 57/104/30
f 77/120/95 54/97/95 66/93/95
f 66/93/32 76/121/32 77/120/32
f 58/122/33 77/120/33 76/121/33
f 76/121/34 66/93/34 53/95/34
f 79/123/96 55/124/96 70/125/96
f 70/125/97 78/126/97 79/123/97
f 59/127/37 79/123/37 78/126/37
f 78/128/98 70/107/98 54/97/98
f 81/129/39 56/130/39 72/131/39
f 72/132/40 80/133/40 81/134/40
f 60/135/41 81/129/41 80/136/41
f 80/133/42 72/132/42 55/124/42
f 83/137/43 57/104/43 73/115/43
f 73/115/44 82/138/44 83/137/44
f 61/139/45 83/140/45 82/141/45
f 82/141/99 73/142/99 56/130/99
f 84/143/47 75/118/47 62/119/47
f 75/116/48 84/144/48 76/121/48
f 58/122/49 76/121/49 84/144/49
f 76/121/50 53/95/50 75/116/50
f 85/145/100 77/120/100 58/122/100
f 77/120/52 85/145/52 78/128/52
f 59/127/53 78/126/53 85/146/53
f 78/128/54 54/97/54 77/120/54
f 86/147/55 79/123/55 59/127/55
f 79/123/56 86/147/56 80/133/56
f 60/148/57 80/133/57 86/147/57
f 80/133/101 55/124/101 79/123/101
f 87/149/59 81/129/59 60/135/59
f 81/129/60 87/149/60 82/141/60
f 61/139/102 82/141/102 87/149/102
f 82/141/62 56/130/62 81/129/62
f 88/150/63 83/137/63 61/151/63
f 83/137/103 88/150/103 74/117/103
f 62/119/65 74/117/65 88/150/65
f 74/117/66 57/104/66 83/137/66
f 90/152/67 58/153/67 84/154/67
f 84/154/104 89/155/104 90/152/104
f 63/156/69 90/152/69 89/155/69
f 89/155/105 84/154/105 62/157/105
f 91/158/106 59/159/106 85/160/106
f 85/160/107 90/152/107 91/158/107
f 63/156/108 91/158/108 90/152/108
f 90/152/74 85/160/74 58/153/74
f 92/161/109 60/148/109 86/147/109
f 86/162/110 91/158/110 92/163/110
f 63/156/111 92/163/111 91/158/111
f 91/164/112 86/147/112 59/127/112
f 93/165/79 61/139/79 87/149/79
f 87/166/113 92/163/113 93/167/113
f 63/156/114 93/167/114 92/163/114
f 92/168/115 87/149/115 60/135/115
f 89/169/116 62/119/116 88/150/116
f 88/170/117 93/167/117 89/155/117
f 63/156/118 89/155/118 93/167/118
f 93/171/86 88/150/86 61/151/86
f 108/172/7 106/173/7 95/174/7
f 106/173/8 108/172/8 107/175/8
f 96/176/119 107/175/119 108/172/119
f 107/177/10 94/178/10 106/179/10
f 110/180/11 95/174/11 106/173/11
f 106/179/12 109/181/12 110/182/12
f 99/183/13 110/184/13 109/185/13
f 106/179/14 94/178/14 109/181/14
f 112/186/87 107/175/87 96/176/87
f 107/177/16 112/187/16 111/188/16
f 97/189/17 111/188/17 112/187/17
f 111/188/18 94/178/18 107/177/18
f 114/190/90 111/188/90 97/189/90
f 111/188/91 114/190/91 113/191/91
f 98/192/92 113/191/92 114/190/92
f 113/191/22 94/178/22 111/188/22
f 115/193/23 113/191/23 98/192/23
f 113/191/24 115/193/24 109/181/24
f 99/183/25 109/185/25 115/194/25
f 109/181/26 94/178/26 113/191/26
f 117/195/27 95/174/27 110/180/27
f 110/184/28 116/196/28 117/197/28
f 104/198/29 117/197/29 116/196/29
f 116/196/30 110/184/30 99/183/30
f 119/199/95 96/176/95 108/172/95
f 108/172/32 118/200/32 119/199/32
f 100/201/33 119/199/33 118/200/33
f 118/200/34 108/172/34 95/174/34
f 121/202/35 97/203/35 112/204/35
f 112/204/97 120/205/97 121/202/97
f 101/206/37 121/202/37 120/205/37
f 120/207/98 112/186/98 96/176/98
f 123/208/39 98/209/39 114/210/39
f 114/211/40 122/212/40 123/213/40
f 102/214/41 123/208/41 122/215/41
f 122/212/42 114/211/42 97/203/42
f 125/216/43 99/183/43 115/194/43
f 115/194/44 124/217/44 125/216/44
f 103/218/45 125/219/45 124/220/45
f 124/220/46 115/221/46 98/209/46
f 126/222/47 117/197/47 104/198/47
f 117/195/48 126/223/48 118/200/48
f 100/201/49 118/200/49 126/223/49
f 118/200/50 95/174/50 117/195/50
f 127/224/120 119/199/120 100/201/120
f 119/199/52 127/224/52 120/207/52
f 101/206/53 120/205/53 127/225/53
f 120/207/54 96/176/54 119/199/54
f 128/226/55 121/202/55 101/206/55
f 121/202/56 128/226/56 122/212/56
f 102/227/57 122/212/57 128/226/57
f 122/212/58 97/203/58 121/202/58
f 129/228/59 123/208/59 102/214/59
f 123/208/60 129/228/60 124/220/60
f 103/218/102 124/220/102 129/228/102
f 124/220/121 98/209/121 123/208/121
f 130/229/63 125/216/63 103/230/63
f 125/216/64 130/229/64 116/196/64
f 104/198/122 116/196/122 130/229/122
f 116/196/66 99/183/66 125/216/66
f 132/231/67 100/232/67 126/233/67
f 126/233/104 131/234/104 132/231/104
f 105/235/123 132/231/123 131/234/123
f 131/234/105 126/233/105 104/236/105
f 133/237/71 101/238/71 127/239/71
f 127/239/124 132/231/124 133/237/124
f 105/235/125 133/237/125 132/231/125
f 132/231/74 127/239/74 100/232/74
f 134/240/109 102/227/109 128/226/109
f 128/241/76 133/237/76 134/242/76
f 105/235/126 134/242/126 133/237/126
f 133/243/112 128/226/112 101/206/112
f 135/244/127 103/218/127 129/228/127
f 129/245/128 134/242/128 135/246/128
f 105/235/114 135/246/114 134/242/114
f 134/247/115 129/228/115 102/214/115
f 131/248/129 104/198/129 130/229/129
f 130/249/117 135/246/117 131/234/117
f 105/235/118 131/234/118 135/246/118
f 135/250/130 130/229/130 103/230/130
f 1/251/131 4/252/131 2/253/131
f 4/252/131 3/254/131 2/253/131
