# Blender3D v249 OBJ File: bones.blend
# www.blender3d.org
mtllib bones.mtl
v 0.132454 0.426511 0.364289
v 0.221278 0.396871 0.254264
v 0.360212 0.435924 0.261047
v 0.410322 0.504617 0.377855
v 0.321497 0.534257 0.487880
v 0.182563 0.495204 0.481097
v 0.092384 0.837676 0.085480
v 0.222823 0.247113 0.632229
v 0.405389 0.263216 0.652515
v 0.516834 0.237736 0.507836
v 0.445712 0.196153 0.342870
v 0.263146 0.180050 0.322584
v 0.151702 0.205530 0.467263
v 0.090132 -0.079644 0.523433
v 0.251105 -0.103645 0.312492
v 0.515031 -0.115388 0.346980
v 0.617984 -0.103129 0.592407
v 0.457010 -0.079128 0.803348
v 0.193084 -0.067385 0.768860
v 0.354058 -0.091387 0.557920
v 0.267368 0.467165 -0.302339
v 0.262600 0.447587 -0.465179
v 0.376588 0.518286 -0.559684
v 0.495344 0.608565 -0.491349
v 0.500112 0.628143 -0.328509
v 0.386124 0.557443 -0.234004
v -0.044910 0.910434 -0.464743
v 0.574939 0.292532 -0.162545
v 0.739148 0.346406 -0.280814
v 0.726207 0.334726 -0.489501
v 0.549059 0.269173 -0.579920
v 0.384851 0.215299 -0.461651
v 0.397791 0.226978 -0.252963
v 0.436273 -0.102118 -0.189205
v 0.413986 -0.104728 -0.490952
v 0.661057 -0.065859 -0.661245
v 0.930415 -0.024379 -0.529791
v 0.952702 -0.021768 -0.228045
v 0.705631 -0.060637 -0.057752
v 0.683344 -0.063248 -0.359499
v -0.150020 0.663579 -0.349956
v -0.193290 0.642288 -0.167374
v -0.360889 0.700455 -0.102651
v -0.485218 0.779913 -0.220510
v -0.441947 0.801203 -0.403092
v -0.274348 0.743036 -0.467815
v 0.055994 1.226881 -0.095747
v -0.408044 0.405965 -0.592129
v -0.634853 0.435330 -0.516069
v -0.685354 0.424582 -0.280647
v -0.509048 0.384468 -0.121285
v -0.282239 0.355104 -0.197345
v -0.231738 0.365852 -0.432767
v -0.192138 -0.014965 -0.497697
v -0.263914 -0.013617 -0.156934
v -0.594886 -0.017300 -0.048689
v -0.854083 -0.022333 -0.281208
v -0.782307 -0.023681 -0.621971
v -0.451335 -0.019997 -0.730216
v -0.523111 -0.018649 -0.389453
v 1.000000 -0.000000 -1.000000
v 1.000000 0.000000 1.000000
v -1.000000 0.000000 1.000000
v -1.000000 -0.000000 -1.000000
vt 0.960469 0.593725
vt 0.999771 0.593836
vt 0.994833 0.715980
vt 0.931319 0.613995
vt 0.321987 0.592529
vt 0.363678 0.716114
vt 0.332766 0.727833
vt 0.922457 0.137217
vt 0.962965 0.267999
vt 0.922464 0.265503
vt 0.000221 0.922007
vt 0.052769 0.789258
vt 0.090541 0.796169
vt 0.020997 0.781067
vt 0.673145 0.914170
vt 0.607430 0.874572
vt 0.673209 0.835253
vt 0.738924 0.874851
vt 0.738860 0.953768
vt 0.673081 0.993087
vt 0.607366 0.953489
vt 0.886019 0.823945
vt 0.932813 0.822907
vt 0.887836 0.909235
vt 0.738924 0.441673
vt 0.806344 0.592556
vt 0.759916 0.595406
vt 0.834043 0.573310
vt 0.871621 0.280903
vt 0.918171 0.440689
vt 0.871478 0.441673
vt 0.943604 0.405722
vt 0.467874 0.953382
vt 0.506295 0.793748
vt 0.552633 0.800073
vt 0.225158 0.887921
vt 0.225193 0.977053
vt 0.150139 0.932155
vt 0.150105 0.843023
vt 0.225124 0.798789
vt 0.300178 0.843687
vt 0.300212 0.932819
vt 0.733844 0.283583
vt 0.787640 0.289780
vt 0.732007 0.441673
vt 0.597467 0.000000
vt 0.648022 0.190131
vt 0.614987 0.187726
vt 0.701054 0.180951
vt 0.871609 0.267999
vt 0.871478 0.095210
vt 0.922457 0.112867
vt 0.573343 0.835253
vt 0.586826 0.683071
vt 0.638551 0.695716
vt 0.811698 0.320242
vt 0.213776 0.695659
vt 0.213755 0.592529
vt 0.300191 0.644119
vt 0.300212 0.747249
vt 0.213798 0.798789
vt 0.127362 0.747199
vt 0.127341 0.644068
vt 0.000085 0.000000
vt 0.573343 0.000083
vt 0.573257 0.592529
vt 0.000000 0.592446
vt 0.836530 0.229538
vt 0.804635 0.207626
vt 0.825134 0.095210
vt 0.871478 0.108706
vt 0.660324 0.582391
vt 0.593147 0.579848
vt 0.573492 0.452865
vt 0.670086 0.442846
vt 0.707847 0.578111
vt 0.657454 0.293163
vt 0.725265 0.300205
vt 0.631449 0.413656
vt 0.725400 0.441673
vt 0.615198 0.276363
vt 0.573343 0.376320
vt 0.735658 0.204263
vt 0.725400 0.095218
vt 0.676120 0.688463
vt 0.573343 0.707368
vt 0.513748 0.714736
vt 0.490329 0.618290
vt 0.573318 0.592529
vt 0.808532 0.905694
vt 0.763717 0.898449
vt 0.738924 0.788865
vt 0.803676 0.787463
vt 0.865522 0.902701
vt 0.886019 0.787484
vt 0.821931 0.677308
vt 0.857398 0.668369
vt 0.822674 0.784666
vt 0.871181 0.787463
vt 0.762592 0.669508
vt 0.738940 0.761893
vt 0.486705 0.736171
vt 0.452090 0.653311
vt 0.886072 0.790648
vt 0.945985 0.787463
vt 0.853809 0.994340
vt 0.809112 1.000000
vt 0.774120 0.985266
vt 0.067086 0.705261
vt 0.025530 0.709367
vt 0.000000 0.625573
vt 0.058069 0.605521
vt 0.116029 0.703424
vt 0.127341 0.592529
vt 0.379952 0.804127
vt 0.429050 0.800543
vt 0.381166 0.910871
vt 0.452090 0.909500
vt 0.338621 0.804646
vt 0.321514 0.897412
vt 0.946449 0.532507
vt 0.907511 0.548745
vt 0.929018 0.450292
vt 0.871181 0.463567
vt 0.995974 0.529123
vt 1.000000 0.441673
vt 0.401754 0.710274
vn -0.759524 -0.414150 -0.501600
vn 0.135582 -0.319457 -0.937851
vn 0.797589 0.304048 -0.520967
vn 0.576635 0.775673 0.256560
vn -0.231744 0.708720 0.666341
vn -0.936588 0.129526 0.325617
vn -0.053757 -0.995933 0.072296
vn -0.053757 -0.995933 0.072297
vn -0.829464 -0.551171 0.090556
vn -0.480232 -0.318291 -0.817354
vn 0.191072 0.420146 -0.887113
vn 0.479879 0.869286 -0.118566
vn 0.172328 0.677707 0.714854
vn -0.485898 -0.022192 0.873734
vn 0.153532 -0.988140 -0.002791
vn 0.153531 -0.988140 -0.002791
vn 0.153532 -0.988140 -0.002790
vn 0.899577 -0.403951 0.166087
vn 0.278881 -0.233067 0.931614
vn -0.495377 0.382064 0.780146
vn -0.627684 0.776287 -0.058234
vn -0.073833 0.639112 -0.765561
vn 0.706598 0.059773 -0.705086
vn 0.013343 -0.999888 0.006767
vn 0.013342 -0.999888 0.006767
vn 0.000000 1.000000 -0.000000
vn 0.681772 0.191288 -0.706114
vn 0.656008 0.171596 -0.734988
vn -0.263365 0.321607 -0.909510
vn -0.299127 0.304719 -0.904251
vn -0.919936 0.347541 -0.181474
vn -0.919789 0.340486 -0.195085
vn -0.612578 0.265407 0.744518
vn -0.650113 0.244542 0.719411
vn 0.329506 0.119029 0.936621
vn 0.308072 0.105032 0.945547
vn 0.974563 0.071707 0.212332
vn 0.976415 0.066512 0.205401
vn 0.933083 -0.308328 0.185178
vn 0.933054 -0.307860 0.186098
vn 0.295856 -0.189348 0.936278
vn 0.289747 -0.191161 0.937819
vn -0.588073 0.230004 0.775415
vn -0.624620 0.225261 0.747735
vn -0.851782 0.503975 -0.143097
vn -0.851946 0.498589 -0.159992
vn -0.202013 0.408422 -0.890158
vn -0.244096 0.401303 -0.882821
vn 0.691635 0.011031 -0.722163
vn 0.671417 0.006992 -0.741047
vn -0.484207 0.111508 0.867819
vn -0.448589 0.097603 0.888393
vn 0.444603 0.402034 0.800435
vn 0.479864 0.390914 0.785441
vn 0.862438 0.499569 -0.081436
vn 0.867215 0.493225 -0.068320
vn 0.331419 0.325730 -0.885472
vn 0.377349 0.312394 -0.871790
vn -0.588707 0.020393 -0.808089
vn -0.568506 0.009637 -0.822622
vn -0.993073 -0.096541 0.066981
vn -0.992054 -0.101637 0.074154
vn -0.882491 -0.463208 0.081532
vn -0.882795 -0.462785 0.080641
vn -0.504930 -0.278151 -0.817115
vn -0.499263 -0.279025 -0.820293
vn 0.305695 0.285431 -0.908339
vn 0.348686 0.287948 -0.891910
vn 0.761097 0.640984 -0.099351
vn 0.766788 0.636490 -0.083168
vn 0.366616 0.476808 0.798903
vn 0.405651 0.476240 0.780155
vn -0.458858 -0.067029 0.885978
vn -0.433859 -0.066864 0.898496
vn -0.908739 0.260437 0.326137
vn -0.898681 0.243473 0.364820
vn -0.136207 0.405556 0.903865
vn -0.102416 0.388096 0.915911
vn 0.768824 0.359376 0.528922
vn 0.762564 0.353648 0.541692
vn 0.883019 0.190820 -0.428796
vn 0.905265 0.172281 -0.388348
vn 0.107704 0.030776 -0.993707
vn 0.130248 0.015903 -0.991354
vn -0.786282 0.055261 -0.615391
vn -0.791146 0.050757 -0.609518
vn -0.777366 -0.320638 -0.541196
vn -0.776926 -0.320260 -0.542051
vn 0.124194 -0.276309 -0.953011
vn 0.130288 -0.278286 -0.951621
vn 0.872503 0.152741 -0.464122
vn 0.893477 0.150500 -0.423142
vn 0.730638 0.511734 0.451992
vn 0.723331 0.507978 0.467708
vn -0.179479 0.490394 0.852820
vn -0.138657 0.482433 0.864889
vn -0.932541 0.082566 0.351497
vn -0.922526 0.080257 0.377499
usemtl None_bones_.png
s off
f 2/1/1 1/2/1 7/3/1
f 7/3/2 3/4/2 2/1/2
f 7/5/3 4/6/3 3/7/3
f 7/8/4 5/9/4 4/10/4
f 7/11/5 6/12/5 5/13/5
f 7/11/6 1/14/6 6/12/6
f 20/15/7 14/16/7 15/17/7
f 20/15/7 15/17/7 16/18/7
f 20/15/7 16/18/7 17/19/7
f 20/15/8 17/19/8 18/20/8
f 20/15/7 18/20/7 19/21/7
f 19/21/7 14/16/7 20/15/7
f 22/22/9 21/23/9 27/24/9
f 27/25/10 23/26/10 22/27/10
f 27/25/11 24/28/11 23/26/11
f 27/29/12 25/30/12 24/31/12
f 27/29/13 26/32/13 25/30/13
f 27/33/14 21/34/14 26/35/14
f 40/36/15 34/37/15 35/38/15
f 40/36/15 35/38/15 36/39/15
f 40/36/16 36/39/16 37/40/16
f 40/36/17 37/40/17 38/41/17
f 40/36/15 38/41/15 39/42/15
f 39/42/15 34/37/15 40/36/15
f 42/43/18 41/44/18 47/45/18
f 47/46/19 43/47/19 42/48/19
f 47/46/20 44/49/20 43/47/20
f 47/50/21 45/51/21 44/52/21
f 47/53/22 46/54/22 45/55/22
f 47/45/23 41/44/23 46/56/23
f 60/57/24 54/58/24 55/59/24
f 60/57/24 55/59/24 56/60/24
f 60/57/24 56/60/24 57/61/24
f 60/57/25 57/61/25 58/62/25
f 60/57/25 58/62/25 59/63/25
f 59/63/25 54/58/25 60/57/25
f 61/64/26 64/65/26 63/66/26
f 61/64/26 63/66/26 62/67/26
f 48/68/27 53/69/27 54/70/27
f 48/68/28 54/70/28 59/71/28
f 49/72/29 48/73/29 59/74/29
f 49/72/30 59/74/30 58/75/30
f 50/76/31 49/72/31 57/25/31
f 49/72/32 58/75/32 57/25/32
f 51/77/33 50/78/33 56/79/33
f 50/78/34 57/80/34 56/79/34
f 52/81/35 51/77/35 55/82/35
f 51/77/36 56/79/36 55/82/36
f 53/69/37 52/83/37 55/84/37
f 53/69/38 55/84/38 54/70/38
f 41/44/39 42/43/39 52/83/39
f 41/44/40 52/83/40 53/69/40
f 42/48/41 43/47/41 52/81/41
f 43/47/42 51/77/42 52/81/42
f 43/47/43 44/49/43 51/77/43
f 44/49/44 50/78/44 51/77/44
f 44/85/45 45/55/45 50/76/45
f 45/55/46 49/72/46 50/76/46
f 45/55/47 46/54/47 48/73/47
f 45/55/48 48/73/48 49/72/48
f 46/56/49 41/44/49 53/69/49
f 46/56/50 53/69/50 48/68/50
f 28/86/51 33/87/51 34/88/51
f 28/86/52 34/88/52 39/89/52
f 29/90/53 28/91/53 39/92/53
f 29/90/54 39/92/54 38/93/54
f 30/94/55 29/90/55 37/95/55
f 29/90/56 38/93/56 37/95/56
f 31/96/57 30/97/57 36/98/57
f 30/97/58 37/99/58 36/98/58
f 32/100/59 31/96/59 35/101/59
f 31/96/60 36/98/60 35/101/60
f 33/87/61 32/102/61 35/103/61
f 33/87/62 35/103/62 34/88/62
f 21/23/63 22/22/63 32/104/63
f 21/23/64 32/104/64 33/105/64
f 22/27/65 23/26/65 32/100/65
f 23/26/66 31/96/66 32/100/66
f 23/26/67 24/28/67 31/96/67
f 24/28/68 30/97/68 31/96/68
f 24/106/69 25/107/69 30/94/69
f 25/107/70 29/90/70 30/94/70
f 25/107/71 26/108/71 28/91/71
f 25/107/72 28/91/72 29/90/72
f 26/35/73 21/34/73 33/87/73
f 26/35/74 33/87/74 28/86/74
f 8/109/75 13/110/75 14/111/75
f 8/109/76 14/111/76 19/112/76
f 9/113/77 8/109/77 19/112/77
f 9/113/78 19/112/78 18/114/78
f 10/115/79 9/116/79 17/117/79
f 9/116/80 18/118/80 17/117/80
f 11/119/81 10/115/81 16/120/81
f 10/115/82 17/117/82 16/120/82
f 12/121/83 11/122/83 15/123/83
f 11/122/84 16/124/84 15/123/84
f 13/125/85 12/121/85 15/123/85
f 13/125/86 15/123/86 14/126/86
f 1/2/87 2/1/87 12/121/87
f 1/2/88 12/121/88 13/125/88
f 2/1/89 3/4/89 12/121/89
f 3/4/90 11/122/90 12/121/90
f 3/7/91 4/6/91 11/119/91
f 4/6/92 10/115/92 11/119/92
f 4/6/93 5/127/93 10/115/93
f 5/127/94 9/116/94 10/115/94
f 5/13/95 6/12/95 8/109/95
f 5/13/96 8/109/96 9/113/96
f 6/12/97 1/14/97 13/110/97
f 6/12/98 13/110/98 8/109/98
