# Blender3D v249 OBJ File: chest.blend
# www.blender3d.org
mtllib chest.mtl
v 0.819346 1.853494 -0.036204
v 0.906238 1.747785 0.190937
v 1.012082 1.406215 0.467619
v 0.988807 0.960523 0.406775
v 0.935668 0.744403 0.267868
v -0.561039 1.853439 0.491656
v -0.474147 1.747730 0.718797
v -0.368303 1.406159 0.995480
v -0.391578 0.960467 0.934635
v -0.444717 0.744348 0.795728
v 0.877731 1.296816 0.116417
v -0.502654 1.296761 0.644277
v -0.445272 -0.018389 0.799845
v -0.858268 -0.018389 -0.279752
v 0.526080 -0.018389 -0.809330
v 0.939076 -0.018389 0.270268
v -0.445273 0.746299 0.799845
v -0.858268 0.746299 -0.279753
v 0.526081 0.746299 -0.809330
v 0.939076 0.746299 0.270268
v 0.825222 0.368590 0.239282
v 0.461976 0.368590 -0.710267
v -0.755613 0.368590 -0.244483
v -0.392368 0.368590 0.705066
v -1.000000 0.000000 1.000000
v -1.000000 -0.000000 -1.000000
v 1.000000 -0.000000 -1.000000
v 1.000000 0.000000 1.000000
v -0.487771 1.297120 0.639787
v 0.848996 1.297173 0.128607
v -0.431665 0.762163 0.786453
v -0.380205 0.971453 0.920971
v -0.357665 1.403062 0.979892
v -0.460164 1.733839 0.711953
v -0.544311 1.836208 0.491989
v 0.905102 0.762216 0.275272
v 0.956562 0.971507 0.409790
v 0.979102 1.403116 0.468712
v 0.876602 1.733892 0.200772
v 0.792456 1.836262 -0.019192
vt 0.886774 0.478083
vt 0.886708 0.353110
vt 0.930653 0.389719
vt 0.915504 0.726072
vt 0.959372 0.814401
vt 0.915425 0.851002
vt 0.971273 0.478296
vt 1.000000 0.725850
vt 0.930746 0.566458
vt 0.959484 0.637723
vt 0.886840 0.602099
vt 0.915582 0.602099
vt 0.042558 0.957098
vt 0.000000 0.992543
vt 0.000076 0.871560
vt 0.084101 0.751504
vt 0.126657 0.786957
vt 0.084165 0.872529
vt 0.081902 0.871345
vt 0.165994 0.872735
vt 0.042666 0.786003
vt 0.126748 0.958112
vt 0.000152 0.751504
vt 0.084228 0.992626
vt 0.436198 0.323698
vt 0.483313 0.323844
vt 0.435264 0.632330
vt 0.482379 0.632476
vt 0.577145 0.324132
vt 0.576211 0.632764
vt 0.644283 0.324335
vt 0.643349 0.632967
vt 0.930165 0.011562
vt 0.982431 0.011711
vt 0.981511 0.320343
vt 0.929245 0.320194
vt 0.665638 0.639761
vt 0.548101 0.639402
vt 0.662038 0.633023
vt 0.548215 0.632675
vt 0.549066 0.320699
vt 0.666603 0.321058
vt 0.662972 0.324391
vt 0.549149 0.324043
vt 0.431465 0.639045
vt 0.432429 0.320343
vt 0.000000 0.431365
vt 0.000024 0.000084
vt 0.431465 0.000000
vt 0.431440 0.431281
vt 0.667406 0.602099
vt 0.666603 0.320969
vt 0.886708 0.601473
vt 0.885905 0.320343
vt 0.296219 0.750731
vt 0.296985 1.000000
vt 0.214646 0.985239
vt 0.213973 0.765997
vt 0.929245 0.000710
vt 0.928264 0.320343
vt 0.847671 0.021004
vt 0.846808 0.302134
vt 0.430699 0.750731
vt 0.431465 1.000000
vt 0.348883 0.985240
vt 0.348210 0.765998
vt 0.914445 0.602099
vt 0.915425 0.921732
vt 0.833042 0.901439
vt 0.832180 0.620309
vt 0.165994 0.750999
vt 0.000981 0.751504
vt 0.165012 0.431365
vt 0.000000 0.431871
vt 0.666603 0.602604
vt 0.831415 0.602099
vt 0.832180 0.851368
vt 0.667368 0.851873
vt 0.681175 0.000710
vt 0.845828 0.000205
vt 0.682155 0.320343
vt 0.846808 0.319838
vt 0.501088 0.640266
vt 0.665838 0.639761
vt 0.501853 0.889535
vt 0.666603 0.889030
vt 0.432378 0.000000
vt 0.680261 0.320343
vt 0.431465 0.319633
vt 0.260600 0.431885
vt 0.261566 0.750587
vt 0.213973 0.432029
vt 0.214939 0.750731
vt 0.356771 0.431589
vt 0.357738 0.750292
vt 0.430498 0.431365
vt 0.431465 0.750068
vt 0.484550 0.639761
vt 0.485501 0.958463
vt 0.432415 0.958615
vt 0.431465 0.639912
vn 0.933991 -0.000000 -0.357295
vn -0.933991 -0.000000 0.357295
vn -0.933992 0.000000 0.357295
vn 0.933992 -0.000000 -0.357295
vn -0.294257 0.566898 -0.769441
vn -0.294258 0.566897 -0.769442
vn -0.353426 0.144628 -0.924215
vn -0.353426 0.144627 -0.924215
vn -0.269810 -0.655195 -0.705636
vn -0.269809 -0.655195 -0.705636
vn -0.142353 -0.917107 -0.372358
vn -0.142353 -0.917107 -0.372357
vn -0.377705 -0.281457 -0.882112
vn -0.377707 -0.281457 -0.882111
vn -0.270970 -0.280844 -0.920707
vn -0.270969 -0.280844 -0.920708
vn -0.377705 -0.281457 -0.882111
vn -0.377706 -0.281457 -0.882111
vn -0.270967 -0.280843 -0.920708
vn -0.270969 -0.280843 -0.920708
vn -0.335537 -0.342689 -0.877485
vn -0.335537 -0.342692 -0.877484
vn -0.348484 -0.219172 -0.911330
vn -0.348485 -0.219167 -0.911331
vn 0.000000 1.000000 -0.000000
vn 0.912086 0.215307 -0.348915
vn 0.351376 0.181267 0.918519
vn -0.905629 0.244565 0.346445
vn -0.351376 0.181267 -0.918519
vn 0.357295 0.000000 0.933992
vn -0.357295 -0.000000 -0.933992
vn -0.933992 0.000001 0.357294
vn 0.000000 -1.000000 0.000000
vn 0.294258 -0.566897 0.769442
vn 0.294257 -0.566898 0.769441
vn 0.353426 -0.144627 0.924215
vn 0.353426 -0.144628 0.924215
vn 0.269810 0.655195 0.705636
vn 0.269809 0.655195 0.705636
vn 0.142353 0.917107 0.372358
vn 0.142353 0.917107 0.372357
usemtl None_chest.png
s off
f 11/1/1 1/2/1 2/3/1
f 12/4/2 7/5/2 6/6/2
f 11/1/1 2/3/1 3/7/1
f 12/4/3 8/8/3 7/5/3
f 11/1/1 3/7/1 4/9/1
f 12/4/3 9/10/3 8/8/3
f 11/1/1 4/9/1 5/11/1
f 12/4/3 10/12/3 9/10/3
f 39/13/2 40/14/2 30/15/2
f 35/16/1 34/17/1 29/18/1
f 38/19/2 39/13/2 30/15/2
f 34/17/4 33/20/4 29/18/4
f 37/21/2 38/19/2 30/15/2
f 33/20/1 32/22/1 29/18/1
f 36/23/2 37/21/2 30/15/2
f 32/22/1 31/24/1 29/18/1
f 31/25/5 32/26/5 36/27/5
f 32/26/6 37/28/6 36/27/6
f 32/26/7 33/29/7 37/28/7
f 33/29/8 38/30/8 37/28/8
f 33/29/9 34/31/9 39/32/9
f 33/29/10 39/32/10 38/30/10
f 34/33/11 35/34/11 40/35/11
f 34/33/12 40/35/12 39/36/12
f 1/37/13 11/38/13 40/39/13
f 11/38/14 30/40/14 40/39/14
f 12/41/15 6/42/15 35/43/15
f 12/41/16 35/43/16 29/44/16
f 11/38/17 5/45/17 36/27/17
f 11/38/18 36/27/18 30/40/18
f 10/46/19 12/41/19 31/25/19
f 12/41/20 29/44/20 31/25/20
f 6/42/21 1/37/21 40/39/21
f 6/42/22 40/39/22 35/43/22
f 5/45/23 10/46/23 36/27/23
f 10/46/24 31/25/24 36/27/24
f 25/47/25 28/48/25 27/49/25
f 25/47/25 27/49/25 26/50/25
f 24/51/25 21/52/25 23/53/25
f 21/52/25 22/54/25 23/53/25
f 18/55/26 17/56/26 24/57/26
f 18/55/26 24/57/26 23/58/26
f 19/59/27 18/60/27 22/61/27
f 18/60/27 23/62/27 22/61/27
f 20/63/28 19/64/28 22/65/28
f 20/63/28 22/65/28 21/66/28
f 17/67/29 20/68/29 21/69/29
f 17/67/29 21/69/29 24/70/29
f 17/71/30 13/72/30 20/73/30
f 13/72/30 16/74/30 20/73/30
f 15/75/4 19/76/4 20/77/4
f 15/75/4 20/77/4 16/78/4
f 14/79/31 18/80/31 15/81/31
f 18/80/31 19/82/31 15/81/31
f 13/83/3 17/84/3 14/85/3
f 17/84/32 18/86/32 14/85/32
f 13/87/33 14/79/33 15/88/33
f 13/87/33 15/88/33 16/89/33
f 4/90/34 9/91/34 5/92/34
f 9/91/35 10/93/35 5/92/35
f 3/94/36 8/95/36 4/90/36
f 8/95/37 9/91/37 4/90/37
f 2/96/38 7/97/38 8/95/38
f 2/96/39 8/95/39 3/94/39
f 1/98/40 6/99/40 7/100/40
f 1/98/41 7/100/41 2/101/41
