# Blender3D v249 OBJ File: stone.blend
# www.blender3d.org
mtllib stone.mtl
v 0.512991 1.206584 -0.512573
v 0.512991 1.206584 0.512573
v -0.512155 1.206584 0.512573
v -0.512155 1.206584 -0.512573
v 0.512991 2.301410 -0.512573
v -0.512155 2.301410 -0.512573
v -0.512155 2.301410 0.512573
v 0.274062 1.847400 0.253565
v 0.547831 1.241424 -0.512573
v 0.547832 2.266570 -0.512573
v 0.308902 1.812559 0.253565
v 0.547831 1.241424 0.512573
v 0.512991 1.241424 0.547413
v 0.274062 1.812559 0.288405
v -0.512155 2.266570 0.547413
v -0.512155 1.241424 0.547413
v -0.546995 1.241424 0.512573
v -0.546995 2.266570 0.512573
v -0.546995 2.266570 -0.512573
v -0.546995 1.241424 -0.512573
v 0.512991 2.266570 -0.547413
v 0.512991 1.241424 -0.547413
v -0.512155 1.241424 -0.547413
v -0.512155 2.266570 -0.547413
v 0.478697 2.243577 -0.082296
v -0.010524 2.345878 -0.528468
v -0.519498 2.342500 -0.013093
v -0.108948 2.263881 0.415233
v 0.593471 1.224936 0.035723
v 0.543527 1.797840 -0.497991
v 0.452501 2.258572 -0.076358
v 0.440266 1.469614 0.371943
v -0.025523 1.284291 0.523995
v 0.530952 1.239507 0.531539
v 0.389055 1.508766 0.380632
v 0.292591 1.810584 0.271595
v -0.119507 2.215220 0.465592
v -0.466361 1.711349 0.531472
v 0.531017 2.282744 -0.513925
v 0.273190 1.828379 0.270199
v 0.289411 1.832366 0.253416
v -0.514208 2.283261 0.529531
v -0.029588 2.263058 0.010965
v 0.466726 1.765700 0.063115
v 0.027906 1.819557 0.470675
v 0.466710 2.249626 -0.077849
v -0.115945 2.238910 0.443564
v 0.416350 1.492329 0.376164
v 1.000000 -0.000000 -1.000000
v 1.000000 0.000000 1.000000
v -1.000000 0.000000 1.000000
v -1.000000 -0.000000 -1.000000
v 0.569525 -0.008237 -0.569525
v 0.569525 -0.008237 0.569525
v -0.569525 -0.008237 0.569525
v -0.569525 -0.008237 -0.569526
v 0.569526 1.208237 -0.569525
v -0.569525 1.208237 -0.569525
v -0.569526 1.208237 0.569525
v 0.569525 1.208237 0.569526
v 0.608237 0.030475 -0.569525
v 0.608237 1.169525 -0.569525
v 0.608237 1.169525 0.569526
v 0.608237 0.030475 0.569525
v 0.569525 0.030475 0.608237
v 0.569525 1.169525 0.608237
v -0.569526 1.169525 0.608237
v -0.569525 0.030475 0.608237
v -0.608237 0.030475 0.569525
v -0.608237 1.169525 0.569525
v -0.608237 1.169525 -0.569525
v -0.608237 0.030475 -0.569526
v 0.569526 1.169525 -0.608237
v 0.569525 0.030475 -0.608237
v -0.569525 0.030475 -0.608237
v -0.569525 1.169525 -0.608237
vt 0.801595 0.239337
vt 0.808112 0.239344
vt 0.801615 0.246695
vt 0.609266 0.024348
vt 0.602749 0.024399
vt 0.609246 0.017048
vt 0.801007 0.023686
vt 0.800987 0.016386
vt 0.807524 0.023693
vt 0.368074 0.686175
vt 0.374570 0.693527
vt 0.368054 0.693547
vt 0.609854 0.239999
vt 0.699089 0.256636
vt 0.609874 0.247357
vt 0.153591 0.534660
vt 0.138970 0.636813
vt 0.139318 0.421317
vt 0.603337 0.240050
vt 0.607409 0.126788
vt 0.696951 0.985898
vt 0.598988 0.969536
vt 0.790730 0.968875
vt 0.790750 0.976233
vt 0.599008 0.976895
vt 0.274675 0.677218
vt 0.176312 0.692886
vt 0.176332 0.685513
vt 0.015205 0.537901
vt 0.023926 0.421317
vt 0.024513 0.636691
vt 0.120301 0.421759
vt 0.113853 0.520087
vt 0.113796 0.421317
vt 0.126531 0.538584
vt 0.120301 0.421729
vt 0.126807 0.421317
vt 0.015205 0.519915
vt 0.000588 0.636854
vt 0.000000 0.421317
vt 0.033025 0.520015
vt 0.039511 0.421317
vt 0.039535 0.520351
vt 0.172459 0.809570
vt 0.169796 0.692820
vt 0.606317 0.243817
vt 0.595626 0.972979
vt 0.406900 0.773134
vt 0.406936 0.776715
vt 0.400665 0.776091
vt 0.029297 0.520303
vt 0.033025 0.518615
vt 0.031886 0.522536
vt 0.027267 0.524450
vt 0.039535 0.424624
vt 0.042076 0.421317
vt 0.042083 0.427296
vt 0.113789 0.421317
vt 0.113796 0.425446
vt 0.110387 0.424931
vt 0.173150 0.689323
vt 0.594827 0.008144
vt 0.594833 0.000000
vt 0.602096 0.008118
vt 0.381783 0.769036
vt 0.374570 0.760882
vt 0.382082 0.761165
vt 0.382436 0.248493
vt 0.382487 0.256636
vt 0.375224 0.248518
vt 0.381782 0.008879
vt 0.374570 0.008904
vt 0.381789 0.000735
vt 0.815909 0.265639
vt 0.808308 0.265381
vt 0.808668 0.257525
vt 0.816184 0.505109
vt 0.808962 0.513273
vt 0.808584 0.504852
vt 0.373917 0.429436
vt 0.366633 0.429461
vt 0.366654 0.421317
vt 0.374570 0.669050
vt 0.367352 0.677218
vt 0.367287 0.669075
vt 0.587622 0.256636
vt 0.587615 0.264780
vt 0.374570 0.265515
vt 0.374577 0.257371
vt 0.153591 0.430196
vt 0.153612 0.422052
vt 0.375224 0.521397
vt 0.382735 0.521680
vt 0.588268 0.504394
vt 0.588320 0.512538
vt 0.375276 0.513273
vt 0.375224 0.505129
vt 0.595372 0.513707
vt 0.595626 0.522114
vt 0.382481 0.513273
vt 0.594885 0.264755
vt 0.595538 0.504369
vt 0.595480 0.247758
vt 0.595531 0.255901
vt 0.602749 0.247733
vt 0.154245 0.669810
vt 0.594973 0.761599
vt 0.595814 0.505586
vt 0.595538 0.266116
vt 0.808664 0.753223
vt 0.595626 0.752876
vt 0.595915 0.513273
vt 0.808953 0.513620
vt 0.000508 0.000000
vt 0.374570 0.000609
vt 0.374062 0.421317
vt 0.000000 0.420708
vt 0.567883 0.949535
vt 0.568978 0.944547
vt 0.595626 0.999990
vt 0.591980 0.999622
vt 0.972156 0.807551
vt 0.967032 0.811001
vt 0.988847 0.753534
vt 0.992317 0.753223
vt 0.953137 0.875820
vt 0.949958 0.875296
vt 0.976644 0.802783
vt 0.946375 0.875612
vt 0.138970 0.524031
vt 0.132293 0.521473
vt 0.138858 0.425377
vt 0.134641 0.422984
vt 0.126807 0.518628
vt 0.130379 0.421317
vt 0.798104 0.977567
vt 0.797588 0.973636
vt 0.872615 0.964540
vt 0.874140 0.969979
vt 0.797834 0.970002
vt 0.871778 0.959411
vt 0.487643 0.784034
vt 0.488593 0.782672
vt 0.407393 0.769036
vt 0.489025 0.780656
vt 0.027106 0.421901
vt 0.024583 0.422073
vt 0.024513 0.522588
vt 0.030207 0.421317
vt 0.899066 0.876054
vt 0.888391 0.763197
vt 0.806189 0.853335
vt 0.797246 0.754465
vt 0.511876 0.885335
vt 0.406735 0.875199
vt 0.502485 1.000000
vt 0.400474 0.991967
vt 0.548828 0.875270
vt 1.000000 0.146008
vt 0.908180 0.149816
vt 0.999828 0.041013
vt 0.906135 0.036131
vt 0.813328 0.128773
vt 0.808112 0.038054
vt 0.997215 0.256636
vt 0.921993 0.235075
vt 0.850050 0.200813
vt 0.797246 0.968882
vt 0.790142 0.753223
vt 0.796658 0.753231
vt 0.598400 0.753885
vt 0.367465 0.909197
vt 0.175724 0.908535
vn 0.577350 -0.577351 -0.577351
vn -0.577350 -0.577350 0.577350
vn -0.577350 -0.577351 -0.577351
vn -0.577351 0.577351 -0.577350
vn 0.222321 -0.974974 0.000000
vn 0.704847 -0.704849 -0.079867
vn 0.704124 -0.704126 0.091739
vn -0.000000 -0.145431 0.989368
vn -0.086708 -0.704444 0.704443
vn 0.095871 -0.703850 0.703850
vn 0.000000 0.232339 -0.972635
vn -0.084783 0.704561 -0.704560
vn 0.081263 0.704769 -0.704768
vn -0.940243 0.340503 -0.000000
vn -0.705611 0.705611 0.065011
vn -0.705451 0.705451 -0.068404
vn 0.850716 -0.000000 -0.525626
vn 0.706821 -0.028479 -0.706819
vn 0.706903 0.023994 -0.706904
vn -0.228202 0.000000 0.973614
vn -0.704076 0.092496 0.704075
vn -0.704932 -0.078381 0.704931
vn 0.617531 -0.617532 0.487144
vn 0.481553 -0.619721 0.619720
vn 0.561853 0.584945 -0.584944
vn 0.585814 0.560040 -0.585813
vn 0.536586 0.541452 0.647229
vn 0.501814 0.596244 0.626639
vn 0.576375 0.571572 0.584035
vn 0.551219 0.642691 0.532076
vn -0.587285 0.556951 0.587284
vn -0.587128 0.587127 0.557281
vn 0.577350 -0.577350 -0.577351
vn 0.577350 -0.577350 0.577350
vn -0.577351 -0.577350 0.577351
vn -0.577351 -0.577350 -0.577350
vn 0.577350 0.577350 -0.577350
vn 0.577350 0.577350 0.577350
vn -0.577350 0.577350 0.577350
vn -0.577351 0.577350 -0.577350
vn -0.707107 -0.000000 -0.707106
vn -0.707107 -0.000000 0.707107
vn 0.707107 0.000000 0.707107
vn 0.707107 -0.000000 -0.707107
vn 0.707106 -0.000000 -0.707107
vn -0.000000 0.707107 0.707107
vn 0.707107 0.707107 0.000000
vn -0.707107 0.707106 -0.000000
vn -0.707107 0.707107 -0.000000
vn 0.000000 0.707107 -0.707107
vn -0.707107 -0.707106 -0.000000
vn -0.707107 -0.707107 -0.000000
vn 0.000000 -0.707106 -0.707107
vn 0.000000 -0.707107 -0.707107
vn -0.000000 -0.707106 0.707107
vn -0.000000 -0.707107 0.707107
vn 0.707107 -0.707107 0.000000
vn 0.000000 0.000000 -1.000000
vn -1.000000 -0.000000 -0.000000
vn -0.000000 0.000000 1.000000
vn 1.000000 0.000000 0.000001
vn 1.000000 -0.000000 0.000000
vn 0.000000 1.000000 0.000000
vn -0.000000 -1.000000 0.000000
vn 0.646020 0.590273 0.483980
vn 0.560530 0.609642 0.560484
vn 0.473055 0.613673 0.632158
vn 0.563616 0.602663 0.564920
vn 0.636013 0.452668 0.624964
vn 0.553727 0.453230 0.698547
vn 0.630277 0.434004 0.643733
vn 0.387426 0.420261 0.820538
vn 0.707534 0.434261 0.557506
vn 0.711229 0.444023 0.544974
vn 0.702623 0.425004 0.570694
vn 0.733660 0.529922 0.425354
vn 0.228756 0.650687 0.724070
vn 0.228242 0.701734 0.674888
vn 0.230145 0.724445 0.649779
vn 0.229254 0.644103 0.729776
vn -0.486354 -0.862914 -0.137256
vn 0.716701 0.681342 0.148702
vn -0.537995 -0.832416 -0.132837
vn 0.678431 0.718215 0.154592
vn 0.436752 0.438159 0.785662
vn -0.489970 -0.402463 -0.773274
vn 0.439531 0.438405 0.783973
vn -0.379914 -0.470743 -0.796283
vn 0.583654 0.227468 0.779491
vn 0.546242 0.425759 0.721352
vn 0.294193 0.065615 0.953491
vn 0.005430 0.531099 0.847292
vn 0.202557 -0.011407 0.979204
vn 0.110288 0.053840 0.992440
vn 0.045458 0.029442 0.998532
vn 0.102505 0.088465 0.990791
vn 0.987947 0.067880 0.139113
vn 0.976949 -0.002331 0.213460
vn 0.970123 0.231116 -0.073801
vn 0.990722 0.004104 0.135839
vn 0.737490 0.454824 0.499244
vn 0.778353 0.191647 0.597861
vn 0.885365 0.459772 0.068840
vn 0.938335 0.205858 0.277758
vn 0.163327 0.983444 -0.078501
vn -0.082657 0.985470 0.148381
vn 0.065987 0.985911 0.153702
vn 0.079623 0.987084 0.139019
vn 0.110563 0.990966 0.075916
vn 0.158604 0.986913 0.029124
vn 0.755850 0.638012 0.147077
vn 0.167950 0.585554 0.793044
vn -0.707106 0.000000 -0.707107
vn -0.707106 -0.707107 -0.000000
usemtl Material_steintex.png
s off
f 1/1/1 22/2/1 9/3/1
f 3/4/2 16/5/2 17/6/2
f 4/7/3 20/8/3 23/9/3
f 6/10/4 24/11/4 19/12/4
f 2/13/5 1/1/5 29/14/5
f 29/14/6 1/1/6 9/3/6
f 29/14/7 12/15/7 2/13/7
f 33/16/8 3/17/8 2/18/8
f 13/19/9 33/20/9 2/13/9
f 33/20/10 16/5/10 3/4/10
f 26/21/11 21/22/11 24/23/11
f 6/24/12 26/21/12 24/23/12
f 26/21/13 5/25/13 21/22/13
f 27/26/14 19/12/14 18/27/14
f 7/28/15 27/26/15 18/27/15
f 27/26/16 6/10/16 19/12/16
f 30/29/17 22/30/17 21/31/17
f 10/32/18 30/33/18 21/34/18
f 30/35/19 9/36/19 22/37/19
f 38/38/20 18/39/20 17/40/20
f 16/41/21 38/42/21 17/43/21
f 38/44/22 15/45/22 18/27/22
f 12/15/23 34/46/23 2/13/23
f 34/46/24 13/19/24 2/13/24
f 5/25/25 39/47/25 21/22/25
f 39/48/26 10/49/26 21/50/26
f 41/51/27 8/52/27 40/53/27
f 40/53/28 36/54/28 41/51/28
f 11/55/29 41/56/29 36/57/29
f 36/58/30 40/59/30 14/60/30
f 15/45/31 42/61/31 18/27/31
f 42/61/32 7/28/32 18/27/32
f 53/62/33 74/63/33 61/64/33
f 54/65/34 64/66/34 65/67/34
f 55/68/35 68/69/35 69/70/35
f 56/71/36 72/72/36 75/73/36
f 57/74/37 62/75/37 73/76/37
f 60/77/38 66/78/38 63/79/38
f 59/80/39 70/81/39 67/82/39
f 58/83/40 76/84/40 71/85/40
f 71/86/41 76/87/41 75/88/41
f 71/86/41 75/88/41 72/89/41
f 67/82/42 70/81/42 69/90/42
f 67/82/42 69/90/42 68/91/42
f 63/92/43 66/93/43 65/67/43
f 63/92/43 65/67/43 64/66/43
f 73/94/44 62/95/44 61/96/44
f 73/94/45 61/96/45 74/97/45
f 59/98/46 67/99/46 66/93/46
f 59/98/46 66/93/46 60/100/46
f 60/77/47 63/79/47 62/75/47
f 60/77/47 62/75/47 57/74/47
f 58/83/48 71/85/48 70/81/48
f 58/83/49 70/81/49 59/80/49
f 76/87/50 58/101/50 57/102/50
f 76/87/50 57/102/50 73/94/50
f 72/72/51 56/71/51 69/70/51
f 56/71/52 55/68/52 69/70/52
f 74/63/53 53/62/53 56/71/53
f 74/63/54 56/71/54 75/73/54
f 68/69/55 55/68/55 54/103/55
f 68/69/56 54/103/56 65/104/56
f 53/62/57 61/64/57 64/105/57
f 53/62/57 64/105/57 54/103/57
f 75/88/58 76/87/58 73/94/58
f 75/88/58 73/94/58 74/97/58
f 71/85/59 72/106/59 69/90/59
f 71/85/59 69/90/59 70/81/59
f 67/99/60 68/107/60 66/93/60
f 68/107/60 65/67/60 66/93/60
f 63/79/61 64/108/61 62/75/61
f 64/108/62 61/109/62 62/75/62
f 59/110/63 60/111/63 57/112/63
f 59/110/63 57/112/63 58/113/63
f 53/62/64 54/103/64 56/71/64
f 54/103/64 55/68/64 56/71/64
f 49/114/63 52/115/63 51/116/63
f 49/114/63 51/116/63 50/117/63
f 32/118/65 48/119/65 34/120/65
f 32/118/66 34/120/66 12/121/66
f 48/122/67 35/123/67 13/124/67
f 48/122/68 13/124/68 34/125/68
f 11/126/69 36/127/69 48/122/69
f 11/126/70 48/122/70 32/128/70
f 36/127/71 14/129/71 35/123/71
f 36/127/72 35/123/72 48/122/72
f 28/130/73 47/131/73 8/132/73
f 47/131/74 40/133/74 8/132/74
f 47/131/75 37/134/75 40/133/75
f 37/134/76 14/135/76 40/133/76
f 7/136/77 42/137/77 47/138/77
f 7/136/78 47/138/78 28/139/78
f 42/137/79 15/140/79 37/141/79
f 42/137/80 37/141/80 47/138/80
f 25/142/81 46/143/81 39/48/81
f 25/142/82 39/48/82 5/144/82
f 46/143/83 31/145/83 10/49/83
f 46/143/84 10/49/84 39/48/84
f 8/52/85 41/51/85 46/146/85
f 8/52/86 46/146/86 25/147/86
f 41/51/87 11/148/87 31/149/87
f 41/51/88 31/149/88 46/146/88
f 37/141/89 45/150/89 14/129/89
f 45/150/90 35/123/90 14/129/90
f 45/150/91 33/151/91 35/123/91
f 33/151/92 13/124/92 35/123/92
f 15/140/93 38/152/93 37/141/93
f 38/152/94 45/150/94 37/141/94
f 38/152/95 16/153/95 33/151/95
f 38/152/96 33/151/96 45/150/96
f 31/145/97 44/154/97 30/155/97
f 31/145/98 30/155/98 10/49/98
f 44/154/99 29/156/99 9/157/99
f 44/154/100 9/157/100 30/155/100
f 11/158/101 32/118/101 44/154/101
f 11/158/102 44/154/102 31/145/102
f 32/118/103 12/121/103 29/156/103
f 32/118/104 29/156/104 44/154/104
f 27/159/105 43/160/105 6/161/105
f 43/160/106 26/162/106 6/161/106
f 43/160/107 25/163/107 26/162/107
f 25/163/108 5/164/108 26/162/108
f 7/165/109 28/166/109 27/159/109
f 28/166/110 43/160/110 27/159/110
f 28/166/111 8/167/111 43/160/111
f 8/167/112 25/163/112 43/160/112
f 19/168/41 24/23/41 23/169/41
f 19/168/113 23/169/113 20/170/113
f 20/8/114 4/7/114 3/4/114
f 20/8/52 3/4/52 17/6/52
f 22/2/54 1/1/54 4/7/54
f 22/2/54 4/7/54 23/9/54
f 23/169/58 24/23/58 21/22/58
f 23/169/58 21/22/58 22/171/58
f 19/12/59 20/172/59 17/173/59
f 19/12/59 17/173/59 18/27/59
f 1/1/64 2/13/64 3/4/64
f 1/1/64 3/4/64 4/7/64
