# Blender3D v249 OBJ File: box.blend
# www.blender3d.org
mtllib box.mtl
v -0.347831 2.331300 -0.348111
v -0.490361 2.331300 -0.042456
v -0.403073 2.331300 0.283306
v -0.126811 2.331300 0.476747
v 0.209159 2.331301 0.447353
v 0.447633 2.331301 0.208879
v 0.477027 2.331301 -0.127091
v 0.283586 2.331300 -0.403353
v -0.042176 2.331300 -0.490641
v -0.489685 1.888614 -0.489966
v -0.690209 1.888614 -0.059941
v -0.567405 1.888615 0.398372
v -0.178734 1.888615 0.670523
v 0.293940 1.888615 0.629170
v 0.629449 1.888615 0.293662
v 0.670803 1.888615 -0.179012
v 0.398653 1.888615 -0.567684
v -0.059659 1.888615 -0.690489
v -0.031355 0.876520 -0.366969
v 0.212380 0.876520 -0.301659
v 0.357113 0.876520 -0.094959
v 0.335120 0.876521 0.156414
v 0.156693 0.876521 0.334841
v -0.094681 0.876520 0.356833
v -0.301380 0.876520 0.212100
v -0.366689 0.876520 -0.031636
v -0.260048 0.876520 -0.260328
v 0.000795 2.992763 0.000515
v -0.004566 2.992763 -0.060761
v 0.036075 2.992763 -0.049871
v 0.060208 2.992763 -0.015405
v 0.056541 2.992763 0.026510
v 0.026790 2.992763 0.056261
v -0.015125 2.992763 0.059928
v -0.049591 2.992763 0.035795
v -0.060481 2.992763 -0.004846
v -0.042699 2.992763 -0.042979
v -0.003319 0.187351 -0.003599
v -0.005001 0.187351 0.000008
v -0.003971 0.187351 0.003852
v -0.000711 0.187351 0.006135
v 0.003254 0.187351 0.005788
v 0.006068 0.187351 0.002974
v 0.006415 0.187351 -0.000991
v 0.004132 0.187351 -0.004251
v 0.000288 0.187351 -0.005281
v 0.000795 0.187351 0.000515
vt 0.555914 0.889522
vt 0.568904 0.895537
vt 0.562346 0.903305
vt 0.552779 0.904623
vt 0.544679 0.898876
vt 0.541836 0.888751
vt 0.545580 0.878988
vt 0.554160 0.874153
vt 0.563561 0.876510
vt 0.569383 0.884955
vt 0.665129 0.767773
vt 0.666150 0.766832
vt 0.666462 0.767773
vt 0.665360 0.766330
vt 0.664462 0.766505
vt 0.663876 0.767272
vt 0.663876 0.768274
vt 0.664462 0.769042
vt 0.665360 0.769216
vt 0.666150 0.768715
vt 0.871274 0.672354
vt 0.928767 0.665544
vt 0.911762 0.783969
vt 0.910855 0.784077
vt 0.973164 0.663955
vt 0.912462 0.783944
vt 0.270918 0.125213
vt 0.226762 0.119890
vt 0.218065 0.000381
vt 0.218761 0.000464
vt 0.169913 0.108259
vt 0.217168 0.000197
vt 0.126973 0.095762
vt 0.216491 0.000000
vt 0.735229 0.673340
vt 0.791145 0.657145
vt 0.787844 0.766075
vt 0.786962 0.766330
vt 0.397891 0.680178
vt 0.440831 0.667681
vt 0.488086 0.775743
vt 0.487409 0.775940
vt 0.497680 0.656050
vt 0.488983 0.775559
vt 0.541836 0.650727
vt 0.489679 0.775475
vt 0.660031 0.937738
vt 0.607469 1.000000
vt 0.416250 0.117030
vt 0.340270 0.132575
vt 0.352539 0.001939
vt 0.362019 0.000000
vt 0.731068 0.109452
vt 0.674405 0.128476
vt 0.609182 0.002373
vt 0.616251 0.000000
vt 0.599671 0.150121
vt 0.599858 0.005074
vt 0.541836 0.164259
vt 0.592643 0.006838
vt 0.069352 0.643365
vt 0.145332 0.658910
vt 0.091101 0.775940
vt 0.081621 0.774000
vt 0.541854 0.766330
vt 0.617204 0.785221
vt 0.663876 0.852915
vt 0.885162 0.121252
vt 0.808321 0.130354
vt 0.829664 0.001136
vt 0.839250 0.000000
vt 0.458559 0.272340
vt 0.541588 0.262331
vt 0.351662 0.294210
vt 0.270918 0.317709
vt 0.623459 0.317092
vt 0.728602 0.286640
vt 0.080744 0.481729
vt 0.000000 0.458230
vt 0.187640 0.503600
vt 0.270670 0.513609
vt 0.916516 0.279668
vt 1.000000 0.276680
vt 0.808409 0.292473
vt 0.944501 0.119128
vt 0.204349 0.666024
vt 0.542091 0.336984
vt 0.808321 0.259875
vt 0.475267 0.109916
vn -0.000000 1.000000 0.000000
vn 0.000000 -1.000000 0.000000
vn -0.378747 -0.443661 -0.812229
vn -0.378743 -0.443661 -0.812231
vn 0.231954 -0.443661 -0.865657
vn 0.231951 -0.443662 -0.865658
vn 0.734121 -0.443661 -0.514035
vn 0.734120 -0.443661 -0.514035
vn 0.892784 -0.443661 0.078110
vn 0.892784 -0.443660 0.078115
vn 0.633704 -0.443661 0.633706
vn 0.633708 -0.443662 0.633702
vn 0.078107 -0.443661 0.892784
vn 0.078106 -0.443661 0.892785
vn -0.514037 -0.443661 0.734119
vn -0.865658 -0.443661 0.231951
vn -0.865659 -0.443661 0.231947
vn -0.812228 -0.443661 -0.378749
vn -0.812229 -0.443662 -0.378746
vn -0.772675 0.522642 -0.360304
vn -0.772674 0.522642 -0.360304
vn -0.823502 0.522642 0.220657
vn -0.489004 0.522642 0.698370
vn 0.074304 0.522643 0.849308
vn 0.074305 0.522643 0.849308
vn 0.602845 0.522643 0.602845
vn 0.849308 0.522643 0.074305
vn 0.698370 0.522643 -0.489004
vn 0.698370 0.522643 -0.489003
vn 0.220657 0.522642 -0.823502
vn 0.220658 0.522642 -0.823502
vn -0.360304 0.522642 -0.772675
vn -0.867720 -0.288687 -0.404626
vn -0.867720 -0.288687 -0.404625
vn -0.924801 -0.288687 0.247799
vn -0.924800 -0.288687 0.247798
vn -0.549157 -0.288687 0.784275
vn 0.083444 -0.288686 0.953781
vn 0.083444 -0.288686 0.953780
vn 0.677000 -0.288686 0.677002
vn 0.953780 -0.288686 0.083447
vn 0.784277 -0.288687 -0.549154
vn 0.784277 -0.288686 -0.549154
vn 0.247801 -0.288687 -0.924800
vn -0.404623 -0.288687 -0.867721
vn -0.388831 0.391796 -0.833851
vn -0.388830 0.391795 -0.833851
vn 0.238129 0.391795 -0.888702
vn 0.238128 0.391796 -0.888702
vn 0.753664 0.391795 -0.527719
vn 0.753663 0.391796 -0.527720
vn 0.916551 0.391795 0.080189
vn 0.916551 0.391796 0.080188
vn 0.650574 0.391795 0.650576
vn 0.650575 0.391796 0.650575
vn 0.080187 0.391795 0.916551
vn 0.080187 0.391796 0.916551
vn -0.527721 0.391795 0.753662
vn -0.527720 0.391796 0.753662
vn -0.888703 0.391795 0.238126
vn -0.888702 0.391796 0.238127
vn -0.833850 0.391795 -0.388832
vn -0.833850 0.391796 -0.388831
usemtl None_gem.png
s off
f 28/1/1 37/2/1 36/3/1
f 28/1/1 36/3/1 35/4/1
f 28/1/1 35/4/1 34/5/1
f 28/1/1 34/5/1 33/6/1
f 28/1/1 33/6/1 32/7/1
f 28/1/1 32/7/1 31/8/1
f 28/1/1 31/8/1 30/9/1
f 28/1/1 30/9/1 29/10/1
f 29/10/1 37/2/1 28/1/1
f 47/11/2 39/12/2 38/13/2
f 47/11/2 40/14/2 39/12/2
f 47/11/2 41/15/2 40/14/2
f 47/11/2 42/16/2 41/15/2
f 47/11/2 43/17/2 42/16/2
f 47/11/2 44/18/2 43/17/2
f 47/11/2 45/19/2 44/18/2
f 47/11/2 46/20/2 45/19/2
f 47/11/2 38/13/2 46/20/2
f 27/21/3 19/22/3 46/23/3
f 27/21/4 46/23/4 38/24/4
f 19/22/5 20/25/5 45/26/5
f 19/22/6 45/26/6 46/23/6
f 20/27/7 21/28/7 44/29/7
f 20/27/8 44/29/8 45/30/8
f 21/28/9 22/31/9 43/32/9
f 21/28/10 43/32/10 44/29/10
f 22/31/11 23/33/11 42/34/11
f 22/31/12 42/34/12 43/32/12
f 23/35/13 24/36/13 41/37/13
f 23/35/14 41/37/14 42/38/14
f 24/39/15 25/40/15 40/41/15
f 24/39/15 40/41/15 41/42/15
f 25/40/16 26/43/16 39/44/16
f 25/40/17 39/44/17 40/41/17
f 26/43/18 27/45/18 38/46/18
f 26/43/19 38/46/19 39/44/19
f 1/47/20 2/48/20 36/3/20
f 1/47/21 36/3/21 37/2/21
f 2/49/22 3/50/22 35/51/22
f 2/49/22 35/51/22 36/52/22
f 3/53/23 4/54/23 34/55/23
f 3/53/23 34/55/23 35/56/23
f 4/54/24 5/57/24 34/55/24
f 5/57/25 33/58/25 34/55/25
f 5/57/26 6/59/26 32/60/26
f 5/57/26 32/60/26 33/58/26
f 6/61/27 7/62/27 31/63/27
f 6/61/27 31/63/27 32/64/27
f 7/65/28 8/66/28 30/9/28
f 7/65/29 30/9/29 31/8/29
f 8/66/30 9/67/30 29/10/30
f 8/66/31 29/10/31 30/9/31
f 9/68/32 1/69/32 37/70/32
f 9/68/32 37/70/32 29/71/32
f 11/72/33 10/73/33 27/45/33
f 11/72/34 27/45/34 26/43/34
f 12/74/35 11/72/35 26/43/35
f 12/74/36 26/43/36 25/40/36
f 13/75/37 12/74/37 25/40/37
f 13/75/37 25/40/37 24/39/37
f 14/76/38 13/77/38 24/36/38
f 14/76/39 24/36/39 23/35/39
f 15/78/40 14/79/40 23/33/40
f 15/78/40 23/33/40 22/31/40
f 16/80/41 15/78/41 22/31/41
f 16/80/41 22/31/41 21/28/41
f 17/81/42 16/80/42 21/28/42
f 17/81/43 21/28/43 20/27/43
f 18/82/44 17/83/44 20/25/44
f 18/82/44 20/25/44 19/22/44
f 10/84/45 18/82/45 19/22/45
f 10/84/45 19/22/45 27/21/45
f 10/84/46 1/69/46 9/68/46
f 10/84/47 9/68/47 18/82/47
f 8/85/48 17/83/48 18/82/48
f 8/85/49 18/82/49 9/68/49
f 7/62/50 16/80/50 17/81/50
f 7/62/51 17/81/51 8/86/51
f 6/61/52 15/78/52 16/80/52
f 6/61/53 16/80/53 7/62/53
f 5/57/54 14/76/54 15/87/54
f 5/57/55 15/87/55 6/59/55
f 4/54/56 13/77/56 14/76/56
f 4/54/57 14/76/57 5/57/57
f 3/53/58 12/88/58 13/77/58
f 3/53/59 13/77/59 4/54/59
f 2/49/60 11/72/60 12/74/60
f 2/49/61 12/74/61 3/50/61
f 1/89/62 10/73/62 11/72/62
f 1/89/63 11/72/63 2/49/63
