# Blender3D v249 OBJ File: meteor.blend
# www.blender3d.org
mtllib meteor.mtl
v -0.036521 1.028821 0.330134
v -0.611871 0.182653 0.727938
v 0.413518 0.251133 0.864305
v 0.849138 0.454349 -0.014575
v 0.087600 1.087337 -0.833363
v -0.829894 0.580493 -0.248986
v -0.277359 -0.626638 1.287965
v 1.441220 -0.494754 0.260148
v 0.943562 -0.059998 -1.500494
v -0.651061 -0.321474 -1.157552
v -1.921487 -0.464500 0.250529
v -0.019899 -0.848199 -0.943373
v -0.280415 0.577133 0.510193
v 0.249127 0.561903 0.617284
v -0.085448 0.193780 0.871862
v -0.657579 0.949771 -0.058624
v -0.943966 0.521037 0.324394
v 0.443833 0.669116 0.182500
v 0.653815 0.300836 0.416285
v 0.162316 1.372237 -0.298179
v 0.527936 0.606208 -0.368679
v -0.473204 0.836179 -0.599041
v -1.604975 0.118573 -0.105666
v -1.384575 -0.134669 0.450130
v -0.468876 -0.378356 1.065142
v 0.127806 -0.009674 1.277831
v 0.877850 -0.156658 0.614355
v 1.254684 0.109740 -0.039832
v 0.899168 0.183703 -0.511484
v 0.454007 0.430831 -1.201484
v -0.178365 0.624836 -1.044944
v -1.009120 0.077150 -0.905004
v -1.244045 -0.689549 0.861705
v 0.458066 -0.661534 0.874466
v 1.701780 -0.506846 -0.462111
v 0.326030 -0.033388 -1.621207
v -1.251147 -0.270595 -0.303960
v -1.161413 -0.667904 -0.254122
v -0.208670 -0.988679 0.326613
v 0.720002 -0.871350 -0.161947
v 0.542619 -0.697954 -0.893785
v -0.275005 -0.531743 -1.407520
vt 0.543287 0.746850
vt 0.500415 0.821171
vt 0.449449 0.764208
vt 0.475622 0.671674
vt 0.570204 0.651306
vt 0.403283 0.683820
vt 0.509033 0.558598
vt 0.419749 0.561319
vt 0.456071 0.506450
vt 0.665454 0.094278
vt 0.630309 0.159207
vt 0.595183 0.074273
vt 0.628599 0.005042
vt 0.692237 0.013935
vt 0.544975 0.002544
vt 0.543351 0.162215
vt 0.432833 0.162615
vt 0.491654 0.085159
vt 0.769777 0.640434
vt 0.792109 0.737169
vt 0.746420 0.713195
vt 0.439067 0.000000
vt 0.403283 0.085544
vt 0.647130 0.509181
vt 0.585018 0.411598
vt 0.715491 0.411629
vt 0.587673 0.826424
vt 0.664627 0.719028
vt 0.703122 0.776448
vt 0.692021 0.231754
vt 0.245518 0.861920
vt 0.322163 0.868122
vt 0.288649 1.000000
vt 0.388827 0.987394
vt 0.737544 0.127895
vt 0.445255 0.281621
vt 0.590999 0.253627
vt 0.491827 0.411598
vt 0.861494 0.689897
vt 0.839251 0.567792
vt 0.928597 0.606821
vt 0.749162 0.534196
vt 0.746420 0.584388
vt 0.282566 0.684287
vt 0.387288 0.612817
vt 0.403283 0.768970
vt 0.245615 0.776185
vt 0.778862 0.260052
vt 0.725236 0.384516
vt 0.403493 0.363847
vt 0.907948 0.411598
vt 0.815624 0.437658
vt 0.947181 0.794050
vt 0.882970 0.870687
vt 0.979869 0.955787
vt 0.169323 0.216826
vt 0.076501 0.081906
vt 0.240388 0.009211
vt 0.345282 0.170100
vt 0.304594 0.409476
vt 0.403283 0.000000
vt 0.121782 0.405030
vt 0.000000 0.446290
vt 0.037015 0.234167
vt 0.242872 0.463524
vt 0.287512 0.612817
vt 0.055046 0.576043
vt 0.999734 0.525656
vt 0.376659 0.546567
vt 0.403102 0.437327
vt 1.000000 0.777581
vt 0.397460 0.162666
vt 0.000000 0.880962
vt 0.000371 0.612817
vt 0.070558 0.753795
vn -0.057199 0.602507 0.796061
vn -0.133971 0.643148 0.753931
vn -0.221447 0.607244 0.763030
vn -0.165691 0.441080 0.882040
vn -0.259111 0.624436 0.736845
vn -0.240579 0.731087 0.638462
vn -0.872921 0.471641 -0.124758
vn -0.495141 0.538993 0.681412
vn 0.582325 0.645631 0.494023
vn 0.630831 0.639046 0.440082
vn 0.629499 0.659526 0.410800
vn 0.621173 0.649603 0.438360
vn 0.834202 0.429941 -0.345336
vn 0.902032 0.422302 0.089441
vn 0.455795 0.889511 -0.031974
vn 0.608590 0.599242 0.520122
vn -0.753367 0.542860 -0.371134
vn -0.507324 0.792034 -0.339566
vn -0.500982 0.791018 -0.351150
vn -0.339469 0.866433 0.366136
vn -0.460928 0.455743 0.761475
vn -0.664506 0.544637 0.511666
vn -0.579324 0.630243 0.516892
vn -0.513705 0.857864 -0.013244
vn -0.092643 0.869826 0.484583
vn -0.566516 0.578061 0.587287
vn -0.494209 0.337709 0.801068
vn -0.243988 0.453159 0.857390
vn 0.580715 0.647207 0.493855
vn 0.609551 0.546943 0.573848
vn 0.655352 0.488229 0.576322
vn 0.714273 0.541659 0.443193
vn 0.808496 0.557284 -0.189127
vn 0.699466 0.684275 -0.206190
vn 0.651131 0.743197 -0.153903
vn 0.661381 0.684652 -0.306312
vn -0.726334 0.626659 -0.282380
vn -0.502454 0.604097 -0.618552
vn -0.332302 0.273405 -0.902677
vn -0.521492 0.584333 -0.621773
vn -0.529768 0.414629 0.739884
vn -0.397774 0.479469 0.782231
vn -0.446109 0.374793 0.812722
vn -0.387239 0.432192 0.814406
vn 0.458987 -0.287613 0.840601
vn 0.639876 -0.143029 0.755051
vn 0.659564 0.340187 0.670259
vn 0.530421 -0.004278 0.847723
vn 0.858052 0.414945 0.302602
vn 0.621297 0.696447 -0.359098
vn 0.597572 0.727887 -0.336285
vn 0.649835 0.744264 -0.154224
vn 0.174652 0.633429 -0.753834
vn 0.020481 0.667410 -0.744409
vn -0.080911 0.452747 -0.887960
vn -0.482920 0.337382 -0.808061
vn -0.772194 -0.363407 -0.521202
vn -0.743275 -0.404135 -0.533121
vn -0.519998 0.740360 -0.425992
vn -0.603964 -0.150300 -0.782712
vn -0.091441 -0.934054 0.345227
vn -0.296580 -0.954150 -0.040472
vn -0.237281 -0.961069 -0.141579
vn -0.282718 -0.958388 -0.039528
vn 0.319892 -0.909640 0.264998
vn 0.250950 -0.934461 0.252599
vn 0.073367 -0.992392 -0.098868
vn 0.157543 -0.920385 0.357870
vn 0.335502 -0.751318 -0.568295
vn 0.257204 -0.924484 -0.281382
vn 0.270712 -0.919944 -0.283580
vn 0.384963 -0.909974 0.154112
vn -0.466408 0.192285 -0.863418
vn 0.300124 -0.658064 -0.690563
vn 0.251018 -0.729999 -0.635682
vn 0.103411 -0.718802 -0.687481
vn -0.580230 -0.229087 -0.781570
vn -0.754108 -0.246670 -0.608666
vn -0.363743 -0.850490 -0.379945
vn -0.637136 -0.653296 -0.408976
usemtl None_rock.png
s off
f 15/1/1 3/2/1 14/3/1
f 14/3/2 13/4/2 15/1/2
f 2/5/3 15/1/3 13/4/3
f 14/3/4 1/6/4 13/4/4
f 17/7/5 2/5/5 13/4/5
f 13/4/6 16/8/6 17/7/6
f 6/9/7 17/7/7 16/8/7
f 13/4/8 1/6/8 16/8/8
f 19/10/9 4/11/9 18/12/9
f 18/12/10 14/13/10 19/10/10
f 3/14/11 19/10/11 14/13/11
f 18/12/12 1/15/12 14/13/12
f 21/16/13 5/17/13 20/18/13
f 20/18/14 18/12/14 21/16/14
f 4/11/15 21/16/15 18/12/15
f 20/18/16 1/15/16 18/12/16
f 22/19/17 6/20/17 16/21/17
f 16/22/18 20/18/18 22/23/18
f 5/17/19 22/23/19 20/18/19
f 16/22/20 1/15/20 20/18/20
f 24/24/21 2/5/21 17/7/21
f 17/7/22 23/25/22 24/24/22
f 11/26/23 24/24/23 23/25/23
f 23/25/24 17/7/24 6/9/24
f 26/27/25 3/2/25 15/1/25
f 15/1/26 25/28/26 26/27/26
f 7/29/27 26/27/27 25/28/27
f 25/28/28 15/1/28 2/5/28
f 28/30/29 4/11/29 19/10/29
f 19/31/30 27/32/30 28/33/30
f 8/34/31 28/33/31 27/32/31
f 27/35/32 19/10/32 3/14/32
f 30/36/33 5/17/33 21/16/33
f 21/16/34 29/37/34 30/36/34
f 9/38/35 30/36/35 29/37/35
f 29/37/36 21/16/36 4/11/36
f 32/39/37 6/20/37 22/19/37
f 22/19/38 31/40/38 32/39/38
f 10/41/39 32/39/39 31/40/39
f 31/40/40 22/19/40 5/42/40
f 24/24/41 11/26/41 33/43/41
f 33/43/42 25/28/42 24/24/42
f 2/5/43 24/24/43 25/28/43
f 25/28/44 33/43/44 7/29/44
f 26/44/45 7/45/45 34/46/45
f 34/46/46 27/32/46 26/44/46
f 3/47/47 26/44/47 27/32/47
f 27/32/48 34/46/48 8/34/48
f 28/30/49 8/48/49 35/49/49
f 35/49/50 29/37/50 28/30/50
f 4/11/51 28/30/51 29/37/51
f 29/37/52 35/49/52 9/38/52
f 30/36/53 9/38/53 36/50/53
f 36/51/54 31/40/54 30/52/54
f 5/42/55 30/52/55 31/40/55
f 31/40/56 36/51/56 10/41/56
f 32/39/57 10/41/57 37/53/57
f 37/53/58 23/54/58 32/39/58
f 6/20/59 32/39/59 23/54/59
f 23/54/60 37/53/60 11/55/60
f 39/56/61 7/57/61 33/58/61
f 33/58/62 38/59/62 39/56/62
f 12/60/63 39/56/63 38/59/63
f 38/59/64 33/58/64 11/61/64
f 40/62/65 8/63/65 34/64/65
f 34/64/66 39/56/66 40/62/66
f 12/60/67 40/62/67 39/56/67
f 39/56/68 34/64/68 7/57/68
f 41/65/69 9/66/69 35/67/69
f 35/67/70 40/62/70 41/65/70
f 12/60/71 41/65/71 40/62/71
f 40/62/72 35/67/72 8/63/72
f 42/68/73 10/41/73 36/51/73
f 36/69/74 41/65/74 42/70/74
f 12/60/75 42/70/75 41/65/75
f 41/65/76 36/69/76 9/66/76
f 38/71/77 11/55/77 37/53/77
f 37/72/78 42/70/78 38/59/78
f 12/60/79 38/59/79 42/70/79
f 42/73/80 37/74/80 10/75/80
