# Blender3D v249 OBJ File: nest.blend
# www.blender3d.org
mtllib nest.mtl
v 0.011826 -0.228483 -0.006865
v 0.060961 0.125694 0.837848
v -0.776359 0.125694 0.300896
v -0.682322 0.125694 -0.723161
v 0.468591 0.125694 -0.719127
v 0.830376 0.125694 0.207444
v -0.468622 0.430363 0.705398
v -0.751465 0.564565 -0.221174
v 0.085909 0.351421 -0.803525
v 0.807905 0.446151 -0.314625
v 0.642820 0.367209 0.647651
v 0.311807 0.295097 -0.006865
v 0.040707 -0.132795 0.489646
v -0.451459 -0.132795 0.174033
v -0.422581 0.075384 0.670548
v 0.492959 -0.132795 0.119103
v 0.521842 0.075385 0.615616
v -0.303382 -0.132793 -0.391579
v -0.766670 0.075384 -0.210684
v 0.280306 -0.132795 -0.425523
v -0.034902 0.075384 -0.810242
v 0.761444 0.075383 -0.299557
v 0.767520 0.554327 0.642277
v 0.258791 0.578009 0.962314
v -0.366451 0.412230 0.903646
v -0.916737 0.309605 0.488676
v -0.959418 0.680634 -0.124091
v -0.873758 0.491173 -0.565602
v -0.158433 0.412230 -0.986315
v 0.327625 0.570115 -0.935775
v 0.801549 0.285923 -0.649968
v 0.977059 0.767471 0.065767
v 0.319063 0.385942 0.796513
v -0.477283 0.385943 0.285828
v -0.561344 0.030701 -0.629345
v 0.706742 0.385943 -0.684277
v 0.766639 0.614874 0.196954
v 0.311245 0.333610 0.377850
v -0.201395 0.317823 0.411794
v -0.106173 0.088890 -0.132833
v 0.235560 0.444130 -0.503376
v 0.735620 0.594121 -0.187762
v 1.000000 -0.000000 -1.000000
v 1.000000 0.000000 1.000000
v -1.000000 0.000000 1.000000
v -1.000000 -0.000000 -1.000000
vt 0.558760 0.918550
vt 0.646344 0.841464
vt 0.672903 0.940695
vt 0.527107 0.783397
vt 0.470046 0.841905
vt 0.619052 0.710761
vt 0.764643 0.859288
vt 0.732990 0.724135
vt 0.820314 0.741083
vt 0.859695 0.664440
vt 0.825154 0.545170
vt 0.912386 0.543634
vt 0.452476 0.707261
vt 0.540060 0.630177
vt 0.455202 0.572802
vt 0.357193 0.719987
vt 0.286476 0.642796
vt 0.386702 0.556981
vt 0.592674 0.517416
vt 0.667304 0.593552
vt 0.336591 0.854168
vt 0.264571 0.793087
vt 0.785604 0.611374
vt 0.708563 0.518923
vt 0.155156 0.861043
vt 0.057812 0.908344
vt 0.027390 0.777241
vt 0.127047 0.704669
vt 0.233645 0.709989
vt 0.264571 0.629091
vt 0.264461 0.755274
vt 0.020096 0.650188
vt 0.452805 0.904399
vt 0.185648 0.629091
vt 0.185518 0.532004
vt 0.264571 0.567026
vt 0.840022 0.150119
vt 0.800762 0.025276
vt 0.882232 0.182234
vt 0.592256 0.989425
vt 0.919866 0.794432
vt 0.820314 0.794542
vt 1.000000 0.705635
vt 0.638608 0.051768
vt 0.563535 0.009976
vt 0.665664 0.000000
vt 0.452402 0.842644
vt 0.446849 0.706803
vt 0.487814 0.256638
vt 0.453684 0.318304
vt 0.452476 0.187585
vt 0.155467 0.569389
vt 0.000000 0.598361
vt 0.038045 0.532004
vt 0.582020 0.460886
vt 0.665309 0.517416
vt 0.505975 0.449490
vt 0.347410 0.950849
vt 0.273010 0.931661
vt 0.842622 0.360497
vt 0.882181 0.350006
vt 0.801783 0.442071
vt 0.136433 1.000000
vt 0.745636 0.136557
vt 0.975033 0.517416
vt 0.539993 0.088285
vt 0.944179 0.961858
vt 0.820314 0.967987
vt 0.820730 0.794542
vt 0.452476 0.532004
vt 0.500863 0.424092
vt 0.374791 0.932141
vt 0.698813 0.464370
vt 0.798666 0.475956
vt 0.767451 0.212415
vt 0.748383 0.347137
vt 0.661658 0.336963
vt 0.641727 0.221987
vt 0.552405 0.304609
vt 0.612880 0.445947
vt 0.452088 0.532004
vt 0.000000 0.531313
vt 0.000388 0.000000
vt 0.452476 0.000690
vn -0.123708 -0.793312 0.596114
vn -0.248056 -0.888167 0.386817
vn -0.490147 -0.793312 0.361127
vn -0.124892 -0.972868 0.194756
vn 0.191988 -0.793312 0.577751
vn 0.291231 -0.888166 0.355452
vn 0.528708 -0.793312 0.301867
vn 0.146629 -0.972868 0.178962
vn -0.605168 -0.793311 0.066554
vn -0.444538 -0.888167 -0.116383
vn -0.456142 -0.875223 -0.160996
vn -0.223819 -0.972868 -0.058599
vn -0.134530 -0.850178 -0.509018
vn -0.026681 -0.888167 -0.458746
vn 0.184275 -0.793311 -0.580258
vn -0.013435 -0.972868 -0.230972
vn 0.450473 -0.793312 -0.409549
vn 0.428049 -0.888167 -0.167134
vn 0.608802 -0.793312 -0.004051
vn 0.215516 -0.972868 -0.084149
vn 0.364534 -0.391882 0.844715
vn 0.497788 -0.300632 0.813528
vn -0.496391 0.307493 -0.811815
vn 0.750131 -0.413514 0.516051
vn -0.506612 -0.774165 0.379491
vn -0.486562 -0.440865 0.754252
vn -0.370979 0.887793 0.272392
vn -0.228079 -0.528056 0.818008
vn -0.901047 -0.391464 -0.186733
vn -0.953610 -0.295349 -0.058274
vn 0.347869 0.884137 -0.311910
vn -0.952285 -0.304975 0.011956
vn 0.201275 -0.376901 -0.904121
vn 0.219039 -0.387701 -0.895383
vn -0.297598 0.712910 0.634976
vn -0.153492 -0.501381 -0.851503
vn 0.963898 -0.243894 -0.106849
vn 0.961008 -0.271382 -0.053068
vn -0.616263 0.715073 -0.329985
vn 0.463003 -0.782160 -0.416958
vn -0.319173 0.559896 -0.764621
vn -0.095772 0.633055 -0.768159
vn 0.048555 0.996629 0.066132
vn -0.022816 -0.255956 0.966419
vn -0.214260 0.971801 -0.098463
vn 0.087608 0.854814 0.511486
vn 0.499445 0.865643 0.034880
vn -0.868840 -0.447999 -0.210745
vn 0.739801 0.554652 -0.380862
vn 0.511988 0.232910 0.826814
vn -0.234248 0.784544 0.574125
vn -0.494482 0.112547 -0.861871
vn -0.178472 0.646048 0.742139
vn 0.631110 0.363089 -0.685469
vn 0.741545 0.599776 -0.300631
vn 0.339033 -0.323167 -0.883527
vn -0.671910 0.685544 -0.280297
vn -0.535276 0.836834 0.114838
vn -0.828647 0.554447 0.077024
vn 0.945609 -0.152717 0.287230
vn 0.086955 0.954105 -0.286571
vn -0.038696 0.991624 -0.123229
vn -0.037215 0.994332 -0.099594
vn 0.000380 0.992277 -0.124040
vn 0.596433 0.801660 -0.040112
vn 0.358204 0.881421 -0.307876
vn -0.299452 0.859735 -0.413744
vn 0.284009 0.952861 -0.106743
vn -0.453917 0.889723 -0.048499
vn -0.474856 0.811651 0.340196
vn -0.494869 0.808433 0.318655
vn 0.537879 0.624508 -0.566282
vn 0.730289 0.613821 -0.299838
vn -0.033817 0.922392 -0.384773
vn -0.451494 0.833144 0.319411
vn 0.003931 0.954898 -0.296908
vn -0.381212 0.850416 0.362588
vn -0.526461 0.850192 -0.003416
vn -0.597403 0.797866 -0.080744
vn 0.859254 0.502387 -0.096381
vn 0.000000 1.000000 -0.000000
usemtl None_nest_.png
s off
f 15/1/1 13/2/1 2/3/1
f 13/2/2 15/1/2 14/4/2
f 3/5/3 14/4/3 15/1/3
f 14/4/4 1/6/4 13/2/4
f 17/7/5 2/3/5 13/2/5
f 13/2/6 16/8/6 17/7/6
f 6/9/7 17/7/7 16/8/7
f 13/2/8 1/6/8 16/8/8
f 19/10/9 14/11/9 3/12/9
f 14/4/10 19/13/10 18/14/10
f 4/15/11 18/14/11 19/13/11
f 18/14/12 1/6/12 14/4/12
f 21/16/13 18/17/13 4/18/13
f 18/14/14 21/19/14 20/20/14
f 5/21/15 20/22/15 21/16/15
f 20/20/16 1/6/16 18/14/16
f 22/23/17 20/20/17 5/24/17
f 20/20/18 22/23/18 16/8/18
f 6/9/19 16/8/19 22/23/19
f 16/8/20 1/6/20 20/20/20
f 24/25/21 2/26/21 17/27/21
f 17/27/22 23/28/22 24/25/22
f 11/29/23 24/30/23 23/31/23
f 23/28/24 17/27/24 6/32/24
f 26/33/25 3/5/25 15/1/25
f 15/34/26 25/35/26 26/36/26
f 7/37/27 26/38/27 25/39/27
f 25/40/28 15/1/28 2/3/28
f 28/41/29 4/42/29 19/10/29
f 19/10/30 27/43/30 28/41/30
f 8/44/31 28/45/31 27/46/31
f 27/43/32 19/10/32 3/12/32
f 30/47/33 5/21/33 21/16/33
f 21/16/34 29/48/34 30/47/34
f 9/49/35 30/50/35 29/51/35
f 29/48/36 21/16/36 4/18/36
f 32/52/37 6/32/37 22/53/37
f 22/53/38 31/54/38 32/52/38
f 10/55/39 32/56/39 31/57/39
f 31/58/40 22/59/40 5/21/40
f 33/60/41 24/61/41 11/62/41
f 24/61/42 33/60/42 25/39/42
f 7/37/43 25/39/43 33/60/43
f 25/63/44 2/26/44 24/25/44
f 34/64/45 26/38/45 7/37/45
f 26/38/46 34/64/46 27/46/46
f 8/44/47 27/46/47 34/64/47
f 27/43/48 3/12/48 26/65/48
f 35/66/49 28/45/49 8/44/49
f 28/67/50 35/68/50 29/69/50
f 9/49/51 29/51/51 35/66/51
f 29/48/52 4/18/52 28/70/52
f 36/71/53 30/50/53 9/49/53
f 30/47/54 36/72/54 31/58/54
f 10/55/55 31/57/55 36/71/55
f 31/58/56 5/21/56 30/47/56
f 37/73/57 32/56/57 10/55/57
f 32/56/58 37/73/58 23/74/58
f 11/62/59 23/74/59 37/73/59
f 23/28/60 6/32/60 32/52/60
f 39/75/61 7/37/61 33/60/61
f 33/60/62 38/76/62 39/75/62
f 12/77/63 39/75/63 38/76/63
f 38/76/64 33/60/64 11/62/64
f 40/78/65 8/44/65 34/64/65
f 34/64/66 39/75/66 40/78/66
f 12/77/67 40/78/67 39/75/67
f 39/75/68 34/64/68 7/37/68
f 41/79/69 9/49/69 35/66/69
f 35/66/70 40/78/70 41/79/70
f 12/77/71 41/79/71 40/78/71
f 40/78/72 35/66/72 8/44/72
f 42/80/73 10/55/73 36/71/73
f 36/71/74 41/79/74 42/80/74
f 12/77/75 42/80/75 41/79/75
f 41/79/76 36/71/76 9/49/76
f 38/76/77 11/62/77 37/73/77
f 37/73/78 42/80/78 38/76/78
f 12/77/79 38/76/79 42/80/79
f 42/80/80 37/73/80 10/55/80
f 43/81/81 46/82/81 45/83/81
f 43/81/81 45/83/81 44/84/81
