# Blender3D v249 OBJ File: egg.blend
# www.blender3d.org
mtllib egg.mtl
v 0.001801 -0.396404 -0.024012
v 0.339338 0.236860 0.724676
v -0.605939 0.236860 0.528361
v -0.711346 0.236860 -0.431323
v 0.168804 0.236859 -0.828111
v 0.818152 0.236860 -0.113662
v -0.165202 1.261507 0.780086
v -0.814550 1.261507 0.065638
v -0.335736 1.261507 -0.772701
v 0.609541 1.261507 -0.576386
v 0.714948 1.261507 0.383299
v 0.001801 1.894770 -0.024012
v 0.200201 -0.225315 0.416057
v -0.355421 -0.225315 0.300666
v -0.157022 0.146905 0.740740
v 0.481641 -0.225315 -0.076707
v 0.680043 0.146907 0.363363
v -0.417376 -0.225312 -0.263424
v -0.774602 0.146907 0.061254
v 0.099963 -0.225315 -0.496651
v -0.319216 0.146907 -0.736066
v 0.579807 0.146905 -0.549349
v 0.900823 0.749183 0.162705
v 0.619382 0.749183 0.655472
v 0.102040 0.749183 0.888707
v -0.453588 0.749183 0.773312
v -0.835272 0.749183 0.353365
v -0.897221 0.749183 -0.210730
v -0.615780 0.749183 -0.703497
v -0.098438 0.749183 -0.936732
v 0.457190 0.749183 -0.821337
v 0.838874 0.749183 -0.401390
v 0.322818 1.351460 0.688041
v -0.576205 1.351461 0.501325
v -0.676441 1.351459 -0.411388
v 0.160624 1.351461 -0.788764
v 0.778204 1.351460 -0.109278
v 0.420978 1.723679 0.215399
v -0.096361 1.723682 0.448626
v -0.478039 1.723681 0.028683
v -0.196599 1.723681 -0.464082
v 0.359023 1.723682 -0.348690
vt 0.412914 0.999766
vt 0.472223 0.855722
vt 0.539060 0.993418
vt 0.341498 0.822848
vt 0.562718 0.094010
vt 0.463610 0.000196
vt 0.601795 0.000000
vt 0.417560 0.692431
vt 0.618515 0.855868
vt 0.547098 0.678951
vt 0.666445 0.692679
vt 0.447421 0.166046
vt 0.335581 0.102865
vt 0.344903 0.268679
vt 0.335581 0.625758
vt 0.790058 0.390437
vt 0.724441 0.529128
vt 0.671162 0.370559
vt 0.870628 0.536825
vt 0.919870 0.383653
vt 0.462650 0.536825
vt 1.000000 0.454512
vt 0.608943 0.536969
vt 0.649621 1.000000
vt 0.207155 0.536825
vt 0.223590 0.371021
vt 0.335336 0.434519
vt 0.326260 0.268679
vt 0.108187 0.442732
vt 0.671012 0.165731
vt 0.733670 0.536993
vt 0.796810 0.677877
vt 0.667058 0.717477
vt 0.746575 0.843880
vt 0.859899 0.536825
vt 0.447572 0.371021
vt 0.575603 0.268353
vt 0.562976 0.442732
vt 0.869635 0.217649
vt 0.723447 0.209954
vt 0.806546 0.076598
vt 0.095559 0.268353
vt 0.000000 0.370707
vt 0.000151 0.165731
vt 0.108444 0.094010
vt 0.999387 0.257250
vt 0.876387 0.850665
vt 0.942998 0.670181
vt 0.995283 0.830786
vt 0.666445 0.914740
vt 0.671162 0.370707
vt 0.464007 0.536825
vt 0.335826 0.434519
vt 0.132103 0.993418
vt 0.021542 1.000000
vt 0.052648 0.855868
vt 0.932775 0.076766
vt 0.069367 0.000000
vt 0.223741 0.166046
vt 0.795817 0.997052
vt 0.942004 0.989355
vt 0.253603 0.692431
vt 0.208512 0.536825
vt 0.124064 0.678951
vt 0.004717 0.692679
vt 0.062220 0.536969
vt 0.198940 0.855722
vt 0.207552 0.000196
vt 0.258249 0.999766
vt 0.329664 0.822848
vn 0.130736 -0.577480 0.805869
vn -0.140290 -0.723879 0.675513
vn -0.440810 -0.577480 0.687171
vn -0.081595 -0.915959 0.392889
vn 0.517319 -0.577481 0.631583
vn 0.599100 -0.723876 0.342173
vn 0.806825 -0.577480 0.124697
vn 0.348443 -0.915959 0.199012
vn -0.726029 -0.577479 0.373362
vn -0.685804 -0.723879 0.075319
vn -0.789753 -0.577487 -0.206878
vn -0.398876 -0.915958 0.043804
vn -0.579430 -0.577487 -0.575125
vn -0.283555 -0.723879 -0.628964
vn -0.047281 -0.577479 -0.815035
vn -0.164923 -0.915958 -0.365816
vn 0.367918 -0.577480 -0.728803
vn 0.510559 -0.723879 -0.464036
vn 0.760534 -0.577480 -0.296823
vn 0.296949 -0.915959 -0.269890
vn 0.666027 -0.270140 0.695293
vn 0.858350 -0.151319 0.490243
vn 0.863910 0.100981 0.493419
vn 0.937252 -0.270140 0.220413
vn -0.455448 -0.270142 0.848287
vn -0.201004 -0.151318 0.967833
vn -0.202306 0.100997 0.974101
vn 0.080009 -0.270142 0.959490
vn -0.947514 -0.270134 -0.171010
vn -0.982578 -0.151316 0.107908
vn -0.988941 0.100995 0.108607
vn -0.887806 -0.270144 0.372591
vn -0.130137 -0.270143 -0.953985
vn -0.406264 -0.151316 -0.901140
vn -0.408895 0.100995 -0.906976
vn -0.628688 -0.270134 -0.729232
vn 0.867080 -0.270142 -0.418564
vn 0.731494 -0.151318 -0.664846
vn 0.736231 0.100997 -0.669151
vn 0.499253 -0.270142 -0.823267
vn 0.628688 0.270134 0.729232
vn 0.406264 0.151316 0.901140
vn 0.130137 0.270143 0.953985
vn 0.408895 -0.100995 0.906976
vn -0.499253 0.270142 0.823267
vn -0.731494 0.151318 0.664846
vn -0.867080 0.270142 0.418564
vn -0.736231 -0.100997 0.669151
vn -0.937253 0.270140 -0.220413
vn -0.858350 0.151319 -0.490243
vn -0.666027 0.270140 -0.695293
vn -0.863910 -0.100981 -0.493419
vn -0.080009 0.270142 -0.959490
vn 0.201004 0.151318 -0.967833
vn 0.455448 0.270142 -0.848287
vn 0.202306 -0.100997 -0.974101
vn 0.887805 0.270144 -0.372591
vn 0.982578 0.151316 -0.107908
vn 0.947514 0.270134 0.171010
vn 0.988941 -0.100995 -0.108607
vn 0.047281 0.577479 0.815035
vn 0.283555 0.723879 0.628964
vn 0.164923 0.915958 0.365816
vn 0.579430 0.577487 0.575125
vn -0.760534 0.577480 0.296823
vn -0.510559 0.723879 0.464036
vn -0.296949 0.915959 0.269890
vn -0.367917 0.577480 0.728803
vn -0.517319 0.577481 -0.631583
vn -0.599100 0.723877 -0.342173
vn -0.348444 0.915959 -0.199012
vn -0.806825 0.577481 -0.124697
vn 0.440810 0.577480 -0.687171
vn 0.140290 0.723879 -0.675513
vn 0.081595 0.915959 -0.392889
vn -0.130736 0.577480 -0.805869
vn 0.789753 0.577487 0.206878
vn 0.685804 0.723879 -0.075319
vn 0.398877 0.915958 -0.043804
vn 0.726029 0.577479 -0.373362
usemtl None_egg.png
s off
f 15/1/1 13/2/1 2/3/1
f 13/2/2 15/1/2 14/4/2
f 3/5/3 14/6/3 15/7/3
f 14/4/4 1/8/4 13/2/4
f 17/9/5 2/3/5 13/2/5
f 13/2/6 16/10/6 17/9/6
f 6/11/7 17/9/7 16/10/7
f 13/2/8 1/8/8 16/10/8
f 19/12/9 14/6/9 3/5/9
f 14/6/10 19/12/10 18/13/10
f 4/14/11 18/13/11 19/12/11
f 18/15/12 1/8/12 14/4/12
f 21/16/13 18/17/13 4/18/13
f 18/17/14 21/16/14 20/19/14
f 5/20/15 20/19/15 21/16/15
f 20/21/16 1/8/16 18/15/16
f 22/22/17 20/19/17 5/20/17
f 20/21/18 22/23/18 16/10/18
f 6/11/19 16/10/19 22/23/19
f 16/10/20 1/8/20 20/21/20
f 24/24/21 2/3/21 17/9/21
f 17/25/22 23/26/22 24/27/22
f 11/28/23 24/27/23 23/26/23
f 23/26/24 17/25/24 6/29/24
f 26/30/25 3/5/25 15/7/25
f 15/31/26 25/32/26 26/33/26
f 7/34/27 26/33/27 25/32/27
f 25/32/28 15/31/28 2/35/28
f 28/36/29 4/14/29 19/12/29
f 19/12/30 27/37/30 28/36/30
f 8/38/31 28/36/31 27/37/31
f 27/37/32 19/12/32 3/5/32
f 30/39/33 5/20/33 21/16/33
f 21/16/34 29/40/34 30/39/34
f 9/41/35 30/39/35 29/40/35
f 29/40/36 21/16/36 4/18/36
f 32/42/37 6/29/37 22/43/37
f 22/43/38 31/44/38 32/42/38
f 10/45/39 32/42/39 31/44/39
f 31/46/40 22/22/40 5/20/40
f 33/47/41 24/48/41 11/49/41
f 24/48/42 33/47/42 25/32/42
f 7/34/43 25/32/43 33/47/43
f 25/32/44 2/35/44 24/48/44
f 34/50/45 26/33/45 7/34/45
f 26/30/46 34/51/46 27/37/46
f 8/38/47 27/37/47 34/51/47
f 27/37/48 3/5/48 26/30/48
f 35/52/49 28/36/49 8/38/49
f 28/36/50 35/52/50 29/53/50
f 9/54/51 29/55/51 35/56/51
f 29/53/52 4/14/52 28/36/52
f 36/57/53 30/39/53 9/41/53
f 30/39/54 36/57/54 31/46/54
f 10/45/55 31/44/55 36/58/55
f 31/46/56 5/20/56 30/39/56
f 37/59/57 32/42/57 10/45/57
f 32/42/58 37/59/58 23/26/58
f 11/28/59 23/26/59 37/59/59
f 23/26/60 6/29/60 32/42/60
f 39/60/61 7/34/61 33/47/61
f 33/47/62 38/61/62 39/60/62
f 12/62/63 39/63/63 38/15/63
f 38/61/64 33/47/64 11/49/64
f 40/64/65 8/65/65 34/66/65
f 34/66/66 39/63/66 40/64/66
f 12/62/67 40/64/67 39/63/67
f 39/60/68 34/50/68 7/34/68
f 41/67/69 9/54/69 35/56/69
f 35/56/70 40/64/70 41/67/70
f 12/62/71 41/67/71 40/64/71
f 40/64/72 35/56/72 8/65/72
f 42/68/73 10/45/73 36/58/73
f 36/69/74 41/67/74 42/70/74
f 12/62/75 42/70/75 41/67/75
f 41/67/76 36/69/76 9/54/76
f 38/13/77 11/28/77 37/59/77
f 37/59/78 42/68/78 38/13/78
f 12/62/79 38/15/79 42/70/79
f 42/68/80 37/59/80 10/45/80
